<?xml version="1.0" encoding="UTF-8" standalone="no"?>
<svg width="35px" height="35px" viewBox="0 0 35 35" version="1.1" xmlns="http://www.w3.org/2000/svg" xmlns:xlink="http://www.w3.org/1999/xlink">
    <!-- Generator: Sketch 43.1 (39012) - http://www.bohemiancoding.com/sketch -->
    <title>icon-bell</title>
    <desc>Created with Sketch.</desc>
    <defs>
        <polygon id="path-1" points="2.22929937e-05 0 35 0 35 34.9999554 2.22929937e-05 34.9999554"></polygon>
    </defs>
    <g id="website" stroke="none" stroke-width="1" fill="none" fill-rule="evenodd">
        <g id="02-step-page" transform="translate(-209.000000, -2439.000000)">
            <g id="A-content-04-content" transform="translate(170.000000, 2075.000000)">
                <g id="box-01" transform="translate(0.000000, 81.000000)">
                    <g id="icon-bell" transform="translate(39.000000, 283.000000)">
                        <g id="Group-3">
                            <mask id="mask-2" fill="white">
                                <use xlink:href="#path-1"></use>
                            </mask>
                            <g id="Clip-2"></g>
                            <path d="M17.5000223,-4.45859873e-05 C27.1649268,-4.45859873e-05 35.0000223,7.83505096 35.0000223,17.4999554 C35.0000223,27.1648599 27.1649268,34.9999554 17.5000223,34.9999554 C7.83511783,34.9999554 2.22929937e-05,27.1648599 2.22929937e-05,17.4999554 C2.22929937e-05,7.83505096 7.83511783,-4.45859873e-05 17.5000223,-4.45859873e-05" id="Fill-1" fill="#F69223" mask="url(#mask-2)"></path>
                        </g>
                        <path d="M25.1284172,25.9610605 L9.87153822,25.9610605 C9.21991401,25.9610605 8.68688854,25.4278121 8.68688854,24.7761879 C8.68688854,24.1245637 9.21991401,23.5913153 9.87153822,23.5913153 L25.1284172,23.5913153 C25.7800414,23.5913153 26.3130669,24.1245637 26.3130669,24.7761879 C26.3130669,25.4278121 25.7800414,25.9610605 25.1284172,25.9610605" id="Fill-4" fill="#FFFFFF"></path>
                        <path d="M24.3252898,15.6894076 C24.3252898,11.9354904 21.2539841,8.86418471 17.5000669,8.86418471 C13.7461497,8.86418471 10.6748439,11.9354904 10.6748439,15.6894076 L10.6748439,22.4040573 L24.3252898,22.4040573 L24.3252898,15.6894076 Z" id="Fill-6" fill="#FFFFFF"></path>
                        <path d="M15.7931146,25.9610605 C15.7931146,26.8998185 16.5611083,27.6678121 17.5000892,27.6678121 C18.4388471,27.6678121 19.2068408,26.8998185 19.2068408,25.9610605 L15.7931146,25.9610605 Z" id="Fill-8" fill="#FFFFFF"></path>
                        <path d="M17.5000223,9.59856051 C16.9455955,9.59856051 16.4961688,9.14913376 16.4961688,8.59470701 C16.4961688,8.04028025 16.9455955,7.5908535 17.5000223,7.5908535 C18.054449,7.5908535 18.5038758,8.04028025 18.5038758,8.59470701 C18.5038758,9.14913376 18.054449,9.59856051 17.5000223,9.59856051 M17.5000223,5.91598089 C16.0206592,5.91598089 14.8212962,7.11534395 14.8212962,8.59470701 C14.8212962,10.0740701 16.0206592,11.2734331 17.5000223,11.2734331 C18.9793854,11.2734331 20.1787484,10.0740701 20.1787484,8.59470701 C20.1787484,7.11534395 18.9793854,5.91598089 17.5000223,5.91598089" id="Fill-10" fill="#FFFFFF"></path>
                    </g>
                </g>
            </g>
        </g>
    </g>
</svg>