<?xml version="1.0" encoding="UTF-8" standalone="no"?>
<svg width="124px" height="124px" viewBox="0 0 124 124" version="1.1" xmlns="http://www.w3.org/2000/svg" xmlns:xlink="http://www.w3.org/1999/xlink">
    <!-- Generator: Sketch 43.1 (39012) - http://www.bohemiancoding.com/sketch -->
    <title>Icon-book</title>
    <desc>Created with Sketch.</desc>
    <defs>
        <polygon id="path-1" points="0 124 124 124 124 0 0 0"></polygon>
    </defs>
    <g id="website" stroke="none" stroke-width="1" fill="none" fill-rule="evenodd">
        <g id="02-step-page" transform="translate(-578.000000, -71.000000)">
            <g id="Book-content" transform="translate(250.000000, 71.000000)">
                <g id="Icon-book" transform="translate(328.000000, 0.000000)">
                    <path d="M122,62 C122,95.137 95.137,122 62,122 C28.863,122 2,95.137 2,62 C2,28.863 28.863,2 62,2 C95.137,2 122,28.863 122,62 Z" id="Fill-1" fill="#FFFEFA"></path>
                    <path d="M122,62 C122,95.137 95.137,122 62,122 C28.863,122 2,95.137 2,62 C2,28.863 28.863,2 62,2 C95.137,2 122,28.863 122,62 Z" id="Stroke-3" stroke="#4A90E2" stroke-width="4"></path>
                    <polygon id="Fill-5" fill="#FFFEFA" points="62.444 48.4631 24.02 48.4631 24.02 95.4631 62.444 95.4631 100.02 95.4631 100.02 48.4631"></polygon>
                    <polygon id="Stroke-7" stroke="#4A90E2" stroke-width="3" points="62.444 48.4631 24.02 48.4631 24.02 95.4631 62.444 95.4631 100.02 95.4631 100.02 48.4631"></polygon>
                    <path d="M62.6246,87.9227 C62.6246,87.9227 80.0196,81.7677 94.0196,87.9537 L94.0196,43.4027 C94.0196,43.4027 77.8636,36.7297 62.2936,43.9327 L62.6246,87.9227 Z" id="Fill-9" fill="#FFFEFA"></path>
                    <path d="M62.6246,87.9227 C62.6246,87.9227 80.0196,81.7677 94.0196,87.9537 L94.0196,43.4027 C94.0196,43.4027 77.8636,36.7297 62.2936,43.9327 L62.6246,87.9227 Z" id="Stroke-11" stroke="#4A90E2" stroke-width="3" stroke-linecap="round" stroke-linejoin="round"></path>
                    <path d="M62.3385,87.9227 C62.3385,87.9227 45.0195,81.7677 31.0195,87.9537 L31.0195,43.4027 C31.0195,43.4027 47.1375,36.7297 62.7075,43.9327 L62.3385,87.9227 Z" id="Fill-13" fill="#FFFEFA"></path>
                    <path d="M62.3385,87.9227 C62.3385,87.9227 45.0195,81.7677 31.0195,87.9537 L31.0195,43.4027 C31.0195,43.4027 47.1375,36.7297 62.7075,43.9327 L62.3385,87.9227 Z" id="Stroke-15" stroke="#4A90E2" stroke-width="3" stroke-linecap="round" stroke-linejoin="round"></path>
                    <path d="M70.6912,52.4409 L85.6512,52.4409" id="Stroke-17" stroke="#4A90E2" stroke-width="3"></path>
                    <path d="M70.6912,58.74 L85.6512,58.74" id="Stroke-19" stroke="#4A90E2" stroke-width="3"></path>
                    <path d="M70.6912,65.039 L85.6512,65.039" id="Stroke-21" stroke="#4A90E2" stroke-width="3"></path>
                    <path d="M70.6912,71.338 L85.6512,71.338" id="Stroke-23" stroke="#4A90E2" stroke-width="3"></path>
                    <path d="M70.6912,77.6371 L85.6512,77.6371" id="Stroke-25" stroke="#4A90E2" stroke-width="3"></path>
                    <path d="M39.196,52.4409 L54.156,52.4409" id="Stroke-27" stroke="#4A90E2" stroke-width="3"></path>
                    <path d="M39.196,58.74 L54.156,58.74" id="Stroke-29" stroke="#4A90E2" stroke-width="3"></path>
                    <path d="M39.196,65.039 L54.156,65.039" id="Stroke-31" stroke="#4A90E2" stroke-width="3"></path>
                    <path d="M39.196,71.338 L54.156,71.338" id="Stroke-33" stroke="#4A90E2" stroke-width="3"></path>
                    <path d="M39.196,77.6371 L54.156,77.6371" id="Stroke-35" stroke="#4A90E2" stroke-width="3"></path>
                    <path d="M63.2778,17.9631 L62.4558,17.9631 C62.4558,20.9631 59.5198,23.0981 56.5198,23.0981 L56.5198,23.9191 C59.5198,23.9191 62.4558,25.9631 62.4558,29.9631 L63.2778,29.9631 C63.2778,25.9631 65.5198,23.9191 68.5198,23.9191 L68.5198,23.0981 C65.5198,23.0981 63.2778,20.9631 63.2778,17.9631" id="Fill-37" fill="#4A90E2"></path>
                    <mask id="mask-2" fill="white">
                        <use xlink:href="#path-1"></use>
                    </mask>
                    <g id="Clip-40"></g>
                    <polygon id="Fill-39" fill="#4A90E2" mask="url(#mask-2)" points="70.691 24.463 76.598 24.463 76.598 22.463 70.691 22.463"></polygon>
                    <polygon id="Fill-41" fill="#4A90E2" mask="url(#mask-2)" points="48.816 24.463 54.723 24.463 54.723 22.463 48.816 22.463"></polygon>
                    <polygon id="Fill-42" fill="#4A90E2" mask="url(#mask-2)" points="61.707 37.354 63.707 37.354 63.707 31.447 61.707 31.447"></polygon>
                    <polygon id="Fill-43" fill="#4A90E2" mask="url(#mask-2)" points="61.707 15.479 63.707 15.479 63.707 9.572 61.707 9.572"></polygon>
                </g>
            </g>
        </g>
    </g>
</svg>