<?xml version="1.0" encoding="UTF-8" standalone="no"?>
<svg width="58px" height="68px" viewBox="0 0 58 68" version="1.1" xmlns="http://www.w3.org/2000/svg" xmlns:xlink="http://www.w3.org/1999/xlink">
    <!-- Generator: Sketch 43.1 (39012) - http://www.bohemiancoding.com/sketch -->
    <title>cheep icon</title>
    <desc>Created with Sketch.</desc>
    <defs></defs>
    <g id="website" stroke="none" stroke-width="1" fill="none" fill-rule="evenodd">
        <g id="02-step-page" transform="translate(-544.000000, -1837.000000)">
            <g id="A-content-03-content" transform="translate(170.000000, 1403.000000)">
                <g id="cheep-icon" transform="translate(374.000000, 434.000000)">
                    <path d="M31.4136173,1.19730753 L39.922619,12.1881924 C40.4083498,12.8153134 41.1064517,13.2304025 41.8764331,13.3504417 L55.3712546,15.4460805 C57.3316031,15.7501052 58.5089013,17.8513532 57.7846615,19.751788 L52.7988417,32.8383116 C52.5145911,33.5854719 52.5145911,34.4145281 52.7988417,35.1616884 L57.7846615,48.248212 C58.5089013,50.1486468 57.3316031,52.2498948 55.3712546,52.5539195 L41.8764331,54.6495583 C41.1064517,54.7695975 40.4083498,55.1846866 39.922619,55.8118076 L31.4136173,66.8026925 C30.1775086,68.3991025 27.8229122,68.3991025 26.5868036,66.8026925 L18.0767127,55.8118076 C17.592071,55.1846866 16.8939691,54.7695975 16.1239878,54.6495583 L2.62916625,52.5539195 C0.668817716,52.2498948 -0.509569572,50.1486468 0.215759387,48.248212 L5.20157917,35.1616884 C5.48582971,34.4145281 5.48582971,33.5854719 5.20157917,32.8383116 L0.215759387,19.751788 C-0.509569572,17.8513532 0.668817716,15.7501052 2.62916625,15.4460805 L16.1239878,13.3504417 C16.8939691,13.2304025 17.592071,12.8153134 18.0767127,12.1881924 L26.5868036,1.19730753 C27.8229122,-0.39910251 30.1775086,-0.39910251 31.4136173,1.19730753" id="Fill-1" fill="#F69223"></path>
                    <text id="省" font-family="PingFangTC-Semibold, PingFang TC, 'Microsoft Jhenghei'" font-size="30" font-weight="500" fill="#FFFFFF">
                        <tspan x="15" y="43">省</tspan>
                    </text>
                </g>
            </g>
        </g>
    </g>
</svg>