<?xml version="1.0" encoding="UTF-8" standalone="no"?>
<svg width="60px" height="60px" viewBox="0 0 60 60" version="1.1" xmlns="http://www.w3.org/2000/svg" xmlns:xlink="http://www.w3.org/1999/xlink">
    <!-- Generator: Sketch 43.1 (39012) - http://www.bohemiancoding.com/sketch -->
    <title>Group 3</title>
    <desc>Created with Sketch.</desc>
    <defs></defs>
    <g id="website" stroke="none" stroke-width="1" fill="none" fill-rule="evenodd">
        <g id="04-taxB" transform="translate(-277.000000, -393.000000)">
            <g id="Group-3" transform="translate(277.000000, 393.000000)">
                <path d="M31.5430379,37.8447909 L31.5430379,31.2437455 C34.7487103,31.7687682 35.9850207,32.8578136 35.9850207,34.6074955 C35.9850207,36.2989727 34.6056759,37.6864273 31.5430379,37.8447909 M25.2272448,25.0474727 C25.2272448,23.2865636 26.5825552,22.27995 28.8637793,22.0019273 L28.8637793,28.0803136 C26.5201241,27.6652 25.2272448,26.6057 25.2272448,25.0474727 M38.8161069,34.2937227 C38.8161069,30.8301091 36.6609172,29.3791318 31.5430379,28.4611545 L31.5430379,21.9821318 C33.7990552,22.2134727 35.2126931,23.1861091 35.4471759,25.1044955 L38.2782621,25.1044955 C38.0613655,22.0169955 35.9694862,19.8241318 31.5430379,19.5679727 L31.5430379,16.9998818 L30.9459862,16.9998818 L29.5868655,16.9998818 L28.8637793,16.9998818 L28.8637793,19.5650182 C25.6736414,19.7786318 22.3961586,21.4275636 22.3961586,25.2472 C22.3961586,29.0892909 25.7152621,30.2002 28.8637793,30.7733818 L28.8637793,37.78895 C25.6323138,37.3342455 24.9101069,35.2554273 24.830969,33.9226318 L21.9998828,33.9226318 C21.9998828,37.7854045 25.1267103,39.9832909 28.8637793,40.2332455 L28.8637793,42.7977909 L29.5868655,42.7977909 L30.9459862,42.7977909 L31.5430379,42.7977909 L31.5430379,40.2429955 C35.2692621,40.0739955 38.8161069,38.3033364 38.8161069,34.2937227" id="Fill-1" fill="#4990E2"></path>
                <ellipse id="Oval-Copy-3" stroke="#4990E2" stroke-width="3" cx="30" cy="30" rx="28.5" ry="28.5"></ellipse>
            </g>
        </g>
    </g>
</svg>