<?xml version="1.0" encoding="UTF-8" standalone="no"?>
<svg width="30px" height="30px" viewBox="0 0 30 30" version="1.1" xmlns="http://www.w3.org/2000/svg" xmlns:xlink="http://www.w3.org/1999/xlink">
    <!-- Generator: Sketch 43.1 (39012) - http://www.bohemiancoding.com/sketch -->
    <title>Fill 127</title>
    <desc>Created with Sketch.</desc>
    <defs></defs>
    <g id="website" stroke="none" stroke-width="1" fill="none" fill-rule="evenodd">
        <g id="02-step-page" transform="translate(-412.000000, -3294.000000)" fill="#FFFFFF">
            <g id="A-button-read-more" transform="translate(330.000000, 3278.000000)">
                <g id="Group-4" transform="translate(82.000000, 16.000000)">
                    <path d="M22.5320093,2.00753138 C24.8324918,3.34728033 26.6526263,5.17154812 27.9915758,7.48033473 C29.3305253,9.78995816 30,12.3004184 30,15.0117155 C30,17.7238494 29.3305253,20.2301255 27.9915758,22.5313808 C26.6526263,24.832636 24.8324918,26.6527197 22.5320093,27.990795 C20.229853,29.3305439 17.7235069,30 15.0121342,30 C12.3007615,30 9.79023125,29.3305439 7.48054339,27.990795 C5.17085553,26.6527197 3.34737371,24.832636 2.00758738,22.5313808 C0.668637898,20.2301255 1.77635684e-15,17.7238494 1.77635684e-15,15.0117155 C1.77635684e-15,12.9707113 0.396663784,11.0251046 1.19250188,9.17573222 C1.98750314,7.32635983 3.05364166,5.73221757 4.39342799,4.39330544 C5.73154063,3.05355649 7.32572736,1.9874477 9.17598817,1.19246862 C11.0245753,0.39748954 12.9710731,0 15.0121342,0 C17.7235069,0 20.229853,0.669456067 22.5320093,2.00753138 Z M14.8866077,12.4008368 L7.40522748,12.4008368 L7.40522748,17.4476987 L14.9368183,17.4476987 L14.8866077,22.3179916 L24.9789394,14.9372385 L14.8866077,7.45523013 L14.8866077,12.4008368 L14.8866077,12.4008368 Z" id="Fill-127" transform="translate(15.000000, 15.000000) rotate(90.000000) translate(-15.000000, -15.000000) "></path>
                </g>
            </g>
        </g>
    </g>
</svg>