<svg xmlns="http://www.w3.org/2000/svg" xmlns:xlink="http://www.w3.org/1999/xlink" width="83" height="83" viewBox="0 0 83 83">
  <defs>
    <clipPath id="clip-Icon-many">
      <rect width="83" height="83"/>
    </clipPath>
  </defs>
  <g id="Icon-many" clip-path="url(#clip-Icon-many)">
    <rect width="83" height="83" fill="transparent"/>
    <g id="Group_40" data-name="Group 40" transform="translate(-177.501 153.5)">
      <path id="Stroke_3" data-name="Stroke 3" d="M258.839-111.831A39.668,39.668,0,0,1,219.17-72.162,39.668,39.668,0,0,1,179.5-111.831,39.67,39.67,0,0,1,219.169-151.5a39.668,39.668,0,0,1,39.67,39.668Z" fill="#fffefa" stroke="#4a90e2" stroke-miterlimit="10" stroke-width="3"/>
      <g id="Group_25" data-name="Group 25">
        <rect id="Rectangle_16" data-name="Rectangle 16" width="30.1" height="38.5" transform="translate(209.523 -129.5)" fill="#fffefa" stroke="#4a90e2" stroke-miterlimit="10" stroke-width="3"/>
        <rect id="Rectangle_17" data-name="Rectangle 17" width="30.1" height="38.5" transform="translate(201.823 -136.5)" fill="#fffefa" stroke="#4a90e2" stroke-miterlimit="10" stroke-width="3"/>
        <line id="Line_1" data-name="Line 1" x2="18.2" transform="translate(207.423 -111.3)" fill="none" stroke="#4a90e2" stroke-miterlimit="10" stroke-width="3"/>
        <line id="Line_2" data-name="Line 2" x2="18.2" transform="translate(207.773 -105.7)" fill="none" stroke="#4a90e2" stroke-miterlimit="10" stroke-width="3"/>
        <g id="Group_24" data-name="Group 24">
          <path id="Path_9" data-name="Path 9" d="M216.2-113.721v-1.931a7.114,7.114,0,0,1-2.355-.649,4.106,4.106,0,0,1-1.567-1.507,5.39,5.39,0,0,1-.767-2.543l1.942-.366a4.884,4.884,0,0,0,.794,2.286,2.813,2.813,0,0,0,1.953,1.148v-6.148a8.03,8.03,0,0,1-2.436-.923,3.57,3.57,0,0,1-1.422-1.427,4.25,4.25,0,0,1-.5-2.071,4.221,4.221,0,0,1,1.46-3.336,5.068,5.068,0,0,1,2.9-1.052v-.923h1.137v.923a4.769,4.769,0,0,1,2.672.987,4.4,4.4,0,0,1,1.524,2.886l-2,.3a3.3,3.3,0,0,0-.713-1.744,2.634,2.634,0,0,0-1.486-.8v5.569a15.07,15.07,0,0,1,1.931.569,4.757,4.757,0,0,1,1.47.965,3.86,3.86,0,0,1,.874,1.352,4.6,4.6,0,0,1,.307,1.695,4.666,4.666,0,0,1-1.277,3.348,4.683,4.683,0,0,1-3.3,1.437v1.953Zm0-16.91a2.865,2.865,0,0,0-1.776.9,2.511,2.511,0,0,0-.649,1.727,2.5,2.5,0,0,0,.552,1.653,3.818,3.818,0,0,0,1.873,1.062Zm1.137,13.348a2.861,2.861,0,0,0,1.862-.977,3.026,3.026,0,0,0,.735-2.07,2.593,2.593,0,0,0-.521-1.69,4.487,4.487,0,0,0-2.076-1.142Z" fill="#4a90e2"/>
        </g>
      </g>
    </g>
  </g>
</svg>
