<svg xmlns="http://www.w3.org/2000/svg" xmlns:xlink="http://www.w3.org/1999/xlink" width="83" height="83" viewBox="0 0 83 83">
  <defs>
    <clipPath id="clip-icon-alone">
      <rect width="83" height="83"/>
    </clipPath>
  </defs>
  <g id="icon-alone" clip-path="url(#clip-icon-alone)">
    <rect width="83" height="83" fill="transparent"/>
    <g id="Group_41" data-name="Group 41" transform="translate(-306.212 153.337)">
      <path id="Stroke_3" data-name="Stroke 3" d="M387.55-111.668A39.668,39.668,0,0,1,347.881-72a39.669,39.669,0,0,1-39.669-39.669,39.67,39.67,0,0,1,39.668-39.669,39.668,39.668,0,0,1,39.67,39.668Z" fill="#fffefa" stroke="#4a90e2" stroke-miterlimit="10" stroke-width="3"/>
      <g id="Group_28" data-name="Group 28">
        <rect id="Rectangle_18" data-name="Rectangle 18" width="32.293" height="41.305" transform="translate(331.735 -132.32)" fill="#fffefa" stroke="#4a90e2" stroke-miterlimit="10" stroke-width="3"/>
        <line id="Line_3" data-name="Line 3" x2="19.526" transform="translate(337.743 -105.285)" fill="none" stroke="#4a90e2" stroke-miterlimit="10" stroke-width="3"/>
        <line id="Line_4" data-name="Line 4" x2="19.526" transform="translate(338.118 -99.277)" fill="none" stroke="#4a90e2" stroke-miterlimit="10" stroke-width="3"/>
        <g id="Group_27" data-name="Group 27">
          <path id="Path_10" data-name="Path 10" d="M347.161-107.881v-2.072a7.65,7.65,0,0,1-2.526-.7,4.4,4.4,0,0,1-1.681-1.617,5.781,5.781,0,0,1-.823-2.728l2.083-.392a5.251,5.251,0,0,0,.852,2.452,3.024,3.024,0,0,0,2.1,1.232v-6.6a8.669,8.669,0,0,1-2.613-.99,3.834,3.834,0,0,1-1.525-1.531,4.554,4.554,0,0,1-.536-2.222,4.529,4.529,0,0,1,1.566-3.58,5.442,5.442,0,0,1,3.108-1.128v-.99h1.22v.99a5.119,5.119,0,0,1,2.867,1.059,4.71,4.71,0,0,1,1.634,3.1l-2.141.322a3.548,3.548,0,0,0-.766-1.871,2.824,2.824,0,0,0-1.594-.857v5.974a16.421,16.421,0,0,1,2.072.61,5.131,5.131,0,0,1,1.577,1.036,4.151,4.151,0,0,1,.938,1.451,4.948,4.948,0,0,1,.329,1.818,5,5,0,0,1-1.37,3.592,5.027,5.027,0,0,1-3.546,1.542v2.1Zm0-18.142a3.07,3.07,0,0,0-1.9.967,2.691,2.691,0,0,0-.7,1.853,2.683,2.683,0,0,0,.592,1.773,4.08,4.08,0,0,0,2.009,1.139Zm1.22,14.32a3.074,3.074,0,0,0,2-1.048,3.25,3.25,0,0,0,.788-2.222,2.785,2.785,0,0,0-.558-1.813,4.824,4.824,0,0,0-2.228-1.225Z" fill="#4a90e2"/>
        </g>
      </g>
    </g>
  </g>
</svg>
