<?xml version="1.0" encoding="UTF-8" standalone="no"?>
<svg width="804px" height="492px" viewBox="0 0 804 492" version="1.1" xmlns="http://www.w3.org/2000/svg" xmlns:xlink="http://www.w3.org/1999/xlink">
    <!-- Generator: Sketch 43.1 (39012) - http://www.bohemiancoding.com/sketch -->
    <title>Group 4</title>
    <desc>Created with Sketch.</desc>
    <defs>
        <polygon id="path-1" points="0 104.040215 81.6038105 104.040215 81.6038105 0.814981682 0 0.814981682"></polygon>
        <polygon id="path-3" points="0 73.7246 73.725 73.7246 73.725 -0.0004 0 -0.0004"></polygon>
        <polygon id="path-5" points="0 53.7990324 53.7993243 53.7990324 53.7993243 -0.000291891892 0 -0.000291891892"></polygon>
        <polygon id="path-7" points="0.836434077 0.9875 215.282997 0.9875 215.282997 198.579898 0.836434077 198.579898 0.836434077 0.9875"></polygon>
        <polygon id="path-9" points="0.835871845 0.9875 215.283103 0.9875 215.283103 198.579695 0.835871845 198.579695 0.835871845 0.9875"></polygon>
    </defs>
    <g id="website" stroke="none" stroke-width="1" fill="none" fill-rule="evenodd">
        <g id="Group-4">
            <g id="01-pic" transform="translate(97.000000, 30.000000)">
                <polygon id="Fill-1" fill="#4A90E2" points="40.3366298 421.526545 616.575249 421.526545 616.575249 17.3307549 40.3366298 17.3307549"></polygon>
                <polygon id="Fill-2" fill="#FFFFFF" points="0.000662983425 408.478466 0.469944751 0.857105611 604.224061 1.54221951 603.754779 409.16358"></polygon>
                <g id="Group-82" transform="translate(1.000000, 0.612321)">
                    <polygon id="Stroke-3" stroke="#4A90E2" stroke-width="7" points="0.000662983425 407.866145 0.469944751 0.244785064 604.224061 0.929898963 603.754779 408.551259"></polygon>
                    <polygon id="Fill-38" fill="#4A90E2" points="384.556262 371.024659 384.556262 375.356292 42.0233895 375.356292 42.0233895 371.024659"></polygon>
                    <polygon id="Fill-39" fill="#4A90E2" points="384.556262 379.688609 384.556262 384.020242 42.0233895 384.020242 42.0233895 379.688609"></polygon>
                    <path d="M26.4328729,379.670368 L34.3421547,379.670368 L34.3421547,371.097881 L26.4328729,371.097881 L26.4328729,379.670368 Z M22.4354144,384.002001 L38.3379006,384.002001 L38.3379006,366.766248 L22.4354144,366.766248 L22.4354144,384.002001 Z" id="Fill-40" fill="#4A90E2"></path>
                    <polygon id="Fill-41" fill="#4A90E2" points="38.3387569 371.097881 46.0262431 371.097881 46.0262431 366.766248 38.3387569 366.766248"></polygon>
                    <polygon id="Fill-42" fill="#4A90E2" points="42.0287845 384.002001 65.6718508 384.002001 65.6718508 379.670368 42.0287845 379.670368"></polygon>
                    <polygon id="Fill-43" fill="#4A90E2" points="42.0287845 375.384124 65.6718508 375.384124 65.6718508 371.052492 42.0287845 371.052492"></polygon>
                    <polygon id="Fill-44" fill="#4A90E2" points="42.0296409 383.910367 46.0262431 383.910367 46.0262431 366.766248 42.0296409 366.766248"></polygon>
                    <polygon id="Fill-45" fill="#4A90E2" points="34.3421547 366.766248 38.3387569 366.766248 38.3387569 358.434407 34.3421547 358.434407"></polygon>
                    <polygon id="Fill-46" fill="#4A90E2" points="22.4354144 362.766039 26.4320166 362.766039 26.4320166 337.141067 22.4354144 337.141067"></polygon>
                    <polygon id="Fill-47" fill="#4A90E2" points="30.4294751 362.766039 34.4260773 362.766039 34.4260773 337.141067 30.4294751 337.141067"></polygon>
                    <polygon id="Fill-48" fill="#4A90E2" points="22.5201934 362.766039 38.3387569 362.766039 38.3387569 358.434407 22.5201934 358.434407"></polygon>
                    <path d="M26.4328729,38.5504452 L34.3421547,38.5504452 L34.3421547,29.9779575 L26.4328729,29.9779575 L26.4328729,38.5504452 Z M22.4354144,42.8820778 L38.3379006,42.8820778 L38.3379006,25.6463249 L22.4354144,25.6463249 L22.4354144,42.8820778 Z" id="Fill-49" fill="#4A90E2"></path>
                    <polygon id="Fill-50" fill="#4A90E2" points="34.3421547 51.2139192 38.3387569 51.2139192 38.3387569 42.8820778 34.3421547 42.8820778"></polygon>
                    <polygon id="Fill-51" fill="#4A90E2" points="22.4354144 72.5072592 26.4320166 72.5072592 26.4320166 46.8822866 22.4354144 46.8822866"></polygon>
                    <polygon id="Fill-52" fill="#4A90E2" points="30.3875138 72.5072592 34.384116 72.5072592 34.384116 46.8822866 30.3875138 46.8822866"></polygon>
                    <polygon id="Fill-53" fill="#4A90E2" points="22.5201934 51.2139192 38.3387569 51.2139192 38.3387569 46.8822866 22.5201934 46.8822866"></polygon>
                    <polygon id="Fill-54" fill="#4A90E2" points="38.3387569 42.8820778 46.0262431 42.8820778 46.0262431 38.5504452 38.3387569 38.5504452"></polygon>
                    <polygon id="Fill-55" fill="#4A90E2" points="42.0287845 29.9779575 65.6718508 29.9779575 65.6718508 25.6463249 42.0287845 25.6463249"></polygon>
                    <polygon id="Fill-56" fill="#4A90E2" points="42.0287845 38.6420792 65.6718508 38.6420792 65.6718508 34.3104465 42.0287845 34.3104465"></polygon>
                    <polygon id="Fill-57" fill="#4A90E2" points="42.0296409 42.8820778 46.0262431 42.8820778 46.0262431 25.7379589 42.0296409 25.7379589"></polygon>
                    <path d="M569.890276,38.5504452 L577.799558,38.5504452 L577.799558,29.9779575 L569.890276,29.9779575 L569.890276,38.5504452 Z M565.893674,42.8812214 L581.79616,42.8812214 L581.79616,25.6454685 L565.893674,25.6454685 L565.893674,42.8812214 Z" id="Fill-58" fill="#4A90E2"></path>
                    <polygon id="Fill-59" fill="#4A90E2" points="558.206188 42.8820778 565.893674 42.8820778 565.893674 38.5504452 558.206188 38.5504452"></polygon>
                    <polygon id="Fill-60" fill="#4A90E2" points="368.492182 29.9779575 562.20279 29.9779575 562.20279 25.6463249 368.492182 25.6463249"></polygon>
                    <polygon id="Fill-61" fill="#4A90E2" points="368.492182 38.595834 562.20279 38.595834 562.20279 34.2642013 368.492182 34.2642013"></polygon>
                    <polygon id="Fill-62" fill="#4A90E2" points="558.206188 42.8820778 562.20279 42.8820778 562.20279 25.7379589 558.206188 25.7379589"></polygon>
                    <polygon id="Fill-63" fill="#4A90E2" points="565.893674 51.2139192 569.890276 51.2139192 569.890276 42.8820778 565.893674 42.8820778"></polygon>
                    <polygon id="Fill-64" fill="#4A90E2" points="577.799558 72.5072592 581.79616 72.5072592 581.79616 46.8822866 577.799558 46.8822866"></polygon>
                    <polygon id="Fill-65" fill="#4A90E2" points="569.806354 72.5072592 573.802956 72.5072592 573.802956 46.8822866 569.806354 46.8822866"></polygon>
                    <polygon id="Fill-66" fill="#4A90E2" points="565.893674 51.2139192 581.712238 51.2139192 581.712238 46.8822866 565.893674 46.8822866"></polygon>
                    <path d="M569.890276,379.670368 L577.799558,379.670368 L577.799558,371.097881 L569.890276,371.097881 L569.890276,379.670368 Z M565.893674,384.002001 L581.79616,384.002001 L581.79616,366.766248 L565.893674,366.766248 L565.893674,384.002001 Z" id="Fill-67" fill="#4A90E2"></path>
                    <polygon id="Fill-68" fill="#4A90E2" points="565.893674 366.766248 569.890276 366.766248 569.890276 358.434407 565.893674 358.434407"></polygon>
                    <polygon id="Fill-69" fill="#4A90E2" points="577.799558 362.766039 581.79616 362.766039 581.79616 337.141067 577.799558 337.141067"></polygon>
                    <polygon id="Fill-70" fill="#4A90E2" points="569.848315 362.766039 573.844917 362.766039 573.844917 337.141067 569.848315 337.141067"></polygon>
                    <polygon id="Fill-71" fill="#4A90E2" points="565.893674 362.766039 581.712238 362.766039 581.712238 358.434407 565.893674 358.434407"></polygon>
                    <polygon id="Fill-72" fill="#4A90E2" points="558.206188 371.097881 565.893674 371.097881 565.893674 366.766248 558.206188 366.766248"></polygon>
                    <polygon id="Fill-73" fill="#4A90E2" points="368.492182 384.002001 562.20279 384.002001 562.20279 379.670368 368.492182 379.670368"></polygon>
                    <polygon id="Fill-74" fill="#4A90E2" points="368.492182 375.337879 562.20279 375.337879 562.20279 371.006247 368.492182 371.006247"></polygon>
                    <polygon id="Fill-75" fill="#4A90E2" points="558.206188 383.910367 562.20279 383.910367 562.20279 366.766248 558.206188 366.766248"></polygon>
                    <polygon id="Fill-76" fill="#4A90E2" points="384.556262 25.6462393 384.556262 29.9778719 42.0233895 29.9778719 42.0233895 25.6462393"></polygon>
                    <polygon id="Fill-77" fill="#4A90E2" points="384.556262 34.310104 384.556262 38.6417366 42.0233895 38.6417366 42.0233895 34.310104"></polygon>
                    <polygon id="Fill-78" fill="#4A90E2" points="22.4285635 362.76347 26.4251657 362.76347 26.4251657 49.0455337 22.4285635 49.0455337"></polygon>
                    <polygon id="Fill-79" fill="#4A90E2" points="30.4226243 362.76347 34.4192265 362.76347 34.4192265 49.0455337 30.4226243 49.0455337"></polygon>
                    <polygon id="Fill-80" fill="#4A90E2" points="569.805497 362.76347 573.802099 362.76347 573.802099 49.0455337 569.805497 49.0455337"></polygon>
                    <polygon id="Fill-81" fill="#4A90E2" points="577.799558 362.76347 581.79616 362.76347 581.79616 49.0455337 577.799558 49.0455337"></polygon>
                </g>
            </g>
            <g id="02-pic-ink" transform="translate(74.000000, 387.000000)">
                <polygon id="Fill-1" fill="#4A90E2" points="10.7212842 28.2946034 70.8833895 28.2946034 70.8833895 0.867868791 10.7212842 0.867868791"></polygon>
                <g id="Group-10" transform="translate(0.000000, 0.052020)">
                    <path d="M70.0696905,102.306211 L11.5337747,102.306211 C6.11745895,102.306211 1.72657474,97.895773 1.72657474,92.4553368 L1.72657474,43.7575803 L79.8768905,43.7575803 L79.8768905,92.4553368 C79.8768905,97.895773 75.4860063,102.306211 70.0696905,102.306211 Z" id="Fill-2" fill="#FFFEFA"></path>
                    <path d="M70.0696905,102.306211 L11.5337747,102.306211 C6.11745895,102.306211 1.72657474,97.895773 1.72657474,92.4553368 L1.72657474,43.7575803 L79.8768905,43.7575803 L79.8768905,92.4553368 C79.8768905,97.895773 75.4860063,102.306211 70.0696905,102.306211 Z" id="Stroke-4" stroke="#4A90E2" stroke-width="4"></path>
                    <mask id="mask-2" fill="white">
                        <use xlink:href="#path-1"></use>
                    </mask>
                    <g id="Clip-7"></g>
                    <polygon id="Fill-6" fill="#4A90E2" mask="url(#mask-2)" points="16.0512842 88.4133745 65.4489474 88.4133745 65.4489474 61.1236261 16.0512842 61.1236261"></polygon>
                    <path d="M54.5815305,29.4780608 L40.7502884,29.4780608 L26.9190463,29.4780608 C26.9190463,29.4780608 29.6362674,44.3089934 1.72605684,44.3089934 L40.7502884,43.5373618 L79.77452,44.4459797 C51.8643095,44.4459797 54.5815305,29.4780608 54.5815305,29.4780608" id="Fill-8" fill="#FFFEFA" mask="url(#mask-2)"></path>
                    <path d="M54.5815305,29.4780608 L40.7502884,29.4780608 L26.9190463,29.4780608 C26.9190463,29.4780608 29.6362674,44.3089934 1.72605684,44.3089934 L40.7502884,43.5373618 L79.77452,44.4459797 C51.8643095,44.4459797 54.5815305,29.4780608 54.5815305,29.4780608 Z" id="Stroke-9" stroke="#4A90E2" stroke-width="4" mask="url(#mask-2)"></path>
                </g>
            </g>
            <g id="03-pic-sparkle" transform="translate(0.000000, 166.000000)">
                <path d="M52.2793,37.7935 C44.2793,37.7935 38.2103,43.8625 38.2103,51.8625 L36.3483,51.8625 C36.3483,43.8625 30.2793,37.7935 22.2793,37.7935 L22.2793,35.9315 C30.2793,35.9315 36.3483,29.8625 36.3483,21.8625 L38.2103,21.8625 C38.2103,29.8625 44.2793,35.9315 52.2793,35.9315 L52.2793,37.7935 Z" id="Fill-1" fill="#4A90E2"></path>
                <mask id="mask-4" fill="white">
                    <use xlink:href="#path-3"></use>
                </mask>
                <g id="Clip-4"></g>
                <polygon id="Fill-3" fill="#4A90E2" mask="url(#mask-4)" points="60.03 38.3626 73.725 38.3626 73.725 35.3626 60.03 35.3626"></polygon>
                <polygon id="Fill-5" fill="#4A90E2" mask="url(#mask-4)" points="36.112 73.7246 39.112 73.7246 39.112 60.0286 36.112 60.0286"></polygon>
                <polygon id="Fill-6" fill="#4A90E2" mask="url(#mask-4)" points="0 38.3626 13.696 38.3626 13.696 35.3626 0 35.3626"></polygon>
                <polygon id="Fill-7" fill="#4A90E2" mask="url(#mask-4)" points="36.112 13.6956 39.112 13.6956 39.112 -0.0004 36.112 -0.0004"></polygon>
            </g>
            <g id="04-pic-sparle" transform="translate(733.000000, 0.000000)">
                <path d="M38.1497595,27.5790405 C32.3119216,27.5790405 27.8831919,32.0077703 27.8831919,37.8456081 L26.5244351,37.8456081 C26.5244351,32.0077703 22.0957054,27.5790405 16.2578676,27.5790405 L16.2578676,26.2202838 C22.0957054,26.2202838 26.5244351,21.7915541 26.5244351,15.9537162 L27.8831919,15.9537162 C27.8831919,21.7915541 32.3119216,26.2202838 38.1497595,26.2202838 L38.1497595,27.5790405 Z" id="Fill-1" fill="#4A90E2"></path>
                <mask id="mask-6" fill="white">
                    <use xlink:href="#path-5"></use>
                </mask>
                <g id="Clip-4"></g>
                <polygon id="Fill-3" fill="#4A90E2" mask="url(#mask-6)" points="43.8056757 27.9943297 53.7993243 27.9943297 53.7993243 25.8051405 43.8056757 25.8051405"></polygon>
                <polygon id="Fill-5" fill="#4A90E2" mask="url(#mask-6)" points="26.352 53.7990324 28.5411892 53.7990324 28.5411892 43.8046541 26.352 43.8046541"></polygon>
                <polygon id="Fill-6" fill="#4A90E2" mask="url(#mask-6)" points="0 27.9943297 9.99437838 27.9943297 9.99437838 25.8051405 0 25.8051405"></polygon>
                <polygon id="Fill-7" fill="#4A90E2" mask="url(#mask-6)" points="26.352 9.99408649 28.5411892 9.99408649 28.5411892 -0.000291891892 26.352 -0.000291891892"></polygon>
            </g>
            <g id="05-pic-pen" transform="translate(567.000000, 205.000000)">
                <g id="Group-3" transform="translate(21.269231, 0.025321)">
                    <mask id="mask-8" fill="white">
                        <use xlink:href="#path-7"></use>
                    </mask>
                    <g id="Clip-2"></g>
                    <path d="M211.526045,1.28142051 C178.278186,16.6874333 146.850365,34.6508179 117.856353,57.1779718 C84.7837115,82.874241 55.2498654,113.174792 30.7608782,147.168087 C19.798109,162.384703 10.2684808,178.400433 1.1601859,194.769638 C0.235480769,196.431677 1.39313462,198.588985 3.34585256,198.579869 C15.5371731,198.523151 26.9972372,197.8476 38.8624295,194.68051 C61.2680449,188.699805 82.1858269,177.536497 101.203558,164.452882 C118.017391,152.885459 133.559122,139.579023 148.166019,125.349908 C148.321994,125.197985 148.447583,125.040997 148.551904,124.879959 C157.529545,114.195715 145.968199,105.046908 136.384891,98.3460872 C141.295045,98.3714077 146.206212,98.4990231 151.113327,98.5749846 C157.567019,98.6752538 164.417737,99.1624205 170.788378,97.8629718 C175.036147,96.9959974 177.363609,95.0149205 179.678917,91.4477667 C184.381442,84.2000231 188.737583,76.7021128 192.825327,69.0927923 C199.815814,56.0841256 206.166199,42.5042282 210.476763,28.3490487 C212.895378,20.4044846 214.02366,12.3231897 215.245122,4.14061282 C215.580365,1.89518974 213.636763,0.303035897 211.526045,1.28142051" id="Fill-1" fill="#FFFEFA" mask="url(#mask-8)"></path>
                </g>
                <g id="Group-6" transform="translate(21.269231, 0.025321)">
                    <mask id="mask-10" fill="white">
                        <use xlink:href="#path-9"></use>
                    </mask>
                    <g id="Clip-5"></g>
                    <path d="M191.024836,61.648359 C187.420208,68.6520128 183.550221,75.5199487 179.452349,82.2471026 C176.453387,87.1724487 174.782233,92.1079231 168.733669,93.0863077 C155.676387,95.1980385 141.713644,92.9597051 128.525708,93.3547051 C125.828567,93.4347179 125.326208,96.6109231 127.247528,98.0724231 C133.170503,102.578462 153.019759,112.328885 144.58499,121.769385 C121.907938,143.861026 96.7798615,164.004 68.2547846,178.045744 C53.4696308,185.323872 37.3607205,191.261026 20.8709897,193.020295 C16.4885154,193.487205 12.0857846,193.516577 7.68305385,193.513538 C25.0346949,162.882808 44.9497846,134.343551 69.0660538,108.530808 C97.7106436,77.8717179 130.714413,51.2801154 166.826528,29.9116282 C180.700144,21.7027179 195.068015,14.5552436 209.640477,7.72782051 C208.8839,12.888141 208.072631,18.0363077 206.71849,23.0852179 C203.119938,36.5000256 197.365092,49.3294231 191.024836,61.648359 M211.526349,1.28121795 C178.277477,16.6872308 146.850669,34.6506154 117.855644,57.1777692 C84.7840154,82.8740385 55.2501692,113.175603 30.7611821,147.167885 C19.7984128,162.385513 10.2687846,178.400231 1.15947692,194.769436 C0.234771795,196.431474 1.39343846,198.588782 3.34615641,198.579667 C15.5374769,198.522949 26.9965282,197.847397 38.8627333,194.680308 C61.2683487,188.699603 82.1861308,177.536295 101.203862,164.452679 C118.017695,152.885256 133.559426,139.579833 148.166323,125.349705 C148.321285,125.198795 148.446874,125.040795 148.552208,124.879756 C157.529849,114.195513 145.968503,105.046705 136.385195,98.3458846 C141.295349,98.3712051 146.205503,98.4998333 151.112618,98.5757949 C157.567323,98.6750513 164.418041,99.1622179 170.788682,97.8627692 C175.035438,96.9957949 177.363913,95.0147179 179.678208,91.4475641 C184.381746,84.2008333 188.736874,76.7019103 192.825631,69.0936026 C199.816118,56.0839231 206.16549,42.5040256 210.476054,28.3488462 C212.895682,20.4052949 214.023964,12.324 215.245426,4.14041026 C215.580669,1.896 213.637067,0.302833333 211.526349,1.28121795" id="Fill-4" fill="#4A90E2" mask="url(#mask-10)"></path>
                </g>
                <polygon id="Fill-7" fill="#4A90E2" points="123.709847 160.496096 108.24104 145.697776 112.442219 141.306186 127.911027 156.104506"></polygon>
                <polygon id="Fill-9" fill="#4A90E2" points="138.293855 147.594485 120.692047 130.756344 124.892214 126.364754 142.495035 143.202895"></polygon>
                <path d="M225.230114,26.2884654 C206.332909,33.7175038 188.284447,43.9044526 171.007755,54.4641192 C130.06955,79.4878756 92.4290885,110.287747 60.3328064,145.976504 C37.2222679,171.673786 17.0418192,199.949709 0.497396154,230.297863 C-1.84323205,234.592222 4.71275513,238.429799 7.05642179,234.132401 C34.4734731,183.839786 71.9346654,139.708158 115.927537,103.137235 C144.586306,79.3126577 176.012101,58.4566577 209.39264,41.8342474 C213.894627,39.5928756 218.43814,37.429491 223.040396,35.3997987 C223.734178,35.0939269 224.428973,34.7931192 225.124781,34.4923115 C226.425242,33.931209 225.112627,34.4923115 225.934024,34.1499782 C226.37055,33.9676705 226.809101,33.7863756 227.249678,33.6131833 C231.747614,31.8447987 229.788819,24.4957731 225.230114,26.2884654" id="Fill-11" fill="#4A90E2"></path>
            </g>
        </g>
    </g>
</svg>