<?xml version="1.0" encoding="UTF-8" standalone="no"?>
<svg width="72px" height="72px" viewBox="0 0 72 72" version="1.1" xmlns="http://www.w3.org/2000/svg" xmlns:xlink="http://www.w3.org/1999/xlink">
    <!-- Generator: Sketch 43.1 (39012) - http://www.bohemiancoding.com/sketch -->
    <title>Icon</title>
    <desc>Created with Sketch.</desc>
    <defs>
        <polygon id="path-1" points="0 70 70 70 70 0 0 0"></polygon>
    </defs>
    <g id="website" stroke="none" stroke-width="1" fill="none" fill-rule="evenodd">
        <g id="02-step-page" transform="translate(-602.000000, -1010.000000)">
            <g id="A-content-02-content" transform="translate(250.000000, 1011.000000)">
                <g id="Icon" transform="translate(353.000000, 0.000000)">
                    <path d="M68.1081081,35 C68.1081081,53.2851351 53.2851351,68.1081081 35,68.1081081 C16.7148649,68.1081081 1.89189189,53.2851351 1.89189189,35 C1.89189189,16.7148649 16.7148649,1.89189189 35,1.89189189 C53.2851351,1.89189189 68.1081081,16.7148649 68.1081081,35 Z" id="Fill-1" fill="#FFFEFA"></path>
                    <path d="M68.1081081,35 C68.1081081,53.2851351 53.2851351,68.1081081 35,68.1081081 C16.7148649,68.1081081 1.89189189,53.2851351 1.89189189,35 C1.89189189,16.7148649 16.7148649,1.89189189 35,1.89189189 C53.2851351,1.89189189 68.1081081,16.7148649 68.1081081,35 Z" id="Stroke-3" stroke="#4A90E2" stroke-width="4"></path>
                    <mask id="mask-2" fill="white">
                        <use xlink:href="#path-1"></use>
                    </mask>
                    <g id="Clip-6"></g>
                    <polygon id="Fill-5" fill="#FFFEFA" mask="url(#mask-2)" points="17.3410811 53.8006757 52.3751351 53.8006757 52.3751351 47.337027 17.3410811 47.337027"></polygon>
                    <polygon id="Stroke-7" stroke="#4A90E2" stroke-width="3" mask="url(#mask-2)" points="17.3410811 53.8006757 52.3751351 53.8006757 52.3751351 47.337027 17.3410811 47.337027"></polygon>
                    <path d="M35,22.1114865 C13.2432432,22.2694595 12.1525676,33.3843243 12.1525676,33.3843243 L17.4744595,47.4940541 L35,47.652027 L52.5255405,47.4940541 L57.8474324,33.3843243 C57.8474324,33.3843243 56.7567568,22.2694595 35,22.1114865" id="Fill-8" fill="#FFFEFA" mask="url(#mask-2)"></path>
                    <path d="M35,22.1114865 C13.2432432,22.2694595 12.1525676,33.3843243 12.1525676,33.3843243 L17.4744595,47.4940541 L35,47.652027 L52.5255405,47.4940541 L57.8474324,33.3843243 C57.8474324,33.3843243 56.7567568,22.2694595 35,22.1114865 Z" id="Stroke-9" stroke="#4A90E2" stroke-width="3" mask="url(#mask-2)"></path>
                    <g id="Group-12" mask="url(#mask-2)">
                        <g transform="translate(11.351351, 31.216216)">
                            <path d="M0.800932432,2.16772973 C0.800932432,2.16772973 5.20241892,10.9177297 13.2429595,9.49881081 C21.2835,8.07989189 23.6483649,0.197324324 23.6483649,0.197324324 C23.6483649,0.197324324 26.0132297,9.65205405 34.0537703,9.65489189 C42.0943108,9.65678378 46.4967432,2.16772973 46.4967432,2.16772973" id="Fill-10" stroke="none" fill="#FFFEFA" fill-rule="evenodd"></path>
                            <path d="M0.800932432,2.16772973 C0.800932432,2.16772973 5.20241892,10.9177297 13.2429595,9.49881081 C21.2835,8.07989189 23.6483649,0.197324324 23.6483649,0.197324324 C23.6483649,0.197324324 26.0132297,9.65205405 34.0537703,9.65489189 C42.0943108,9.65678378 46.4967432,2.16772973 46.4967432,2.16772973" id="Stroke-11" stroke="#4A90E2" stroke-width="3" fill="none" stroke-linecap="round" stroke-linejoin="round"></path>
                        </g>
                    </g>
                    <path d="M38.6420811,31.4132568 C38.6420811,33.5028514 36.9478919,35.1970405 34.8582973,35.1970405 C32.7687027,35.1970405 31.0745135,33.5028514 31.0745135,31.4132568 C31.0745135,29.3236622 32.7687027,27.629473 34.8582973,27.629473 C36.9478919,27.629473 38.6420811,29.3236622 38.6420811,31.4132568" id="Fill-13" fill="#4A90E2" mask="url(#mask-2)"></path>
                    <path d="M48.5684595,33.0588243 C48.5684595,34.0653108 47.7521081,34.8816622 46.7456216,34.8816622 C45.7391351,34.8816622 44.9227838,34.0653108 44.9227838,33.0588243 C44.9227838,32.0523378 45.7391351,31.2359865 46.7456216,31.2359865 C47.7521081,31.2359865 48.5684595,32.0523378 48.5684595,33.0588243" id="Fill-14" fill="#4A90E2" mask="url(#mask-2)"></path>
                    <path d="M24.6044324,33.0588243 C24.6044324,34.0653108 23.7880811,34.8816622 22.7815946,34.8816622 C21.7751081,34.8816622 20.9587568,34.0653108 20.9587568,33.0588243 C20.9587568,32.0523378 21.7751081,31.2359865 22.7815946,31.2359865 C23.7880811,31.2359865 24.6044324,32.0523378 24.6044324,33.0588243" id="Fill-15" fill="#4A90E2" mask="url(#mask-2)"></path>
                    <path d="M39.0714459,16.4525541 C37.2977973,13.0424189 34.6377973,11.2044459 34.6377973,11.2044459 C34.6377973,11.2044459 32.3873919,13.040527 30.6137432,16.4506622 C28.8410405,19.8607973 33.4109054,21.6978243 33.4109054,21.6978243 L34.6377973,21.6978243 L36.6838784,21.6978243 C36.6838784,21.6978243 40.8441486,19.8626892 39.0714459,16.4525541" id="Fill-16" fill="#FFFEFA" mask="url(#mask-2)"></path>
                    <path d="M39.0714459,16.4525541 C37.2977973,13.0424189 34.6377973,11.2044459 34.6377973,11.2044459 C34.6377973,11.2044459 32.3873919,13.040527 30.6137432,16.4506622 C28.8410405,19.8607973 33.4109054,21.6978243 33.4109054,21.6978243 L34.6377973,21.6978243 L36.6838784,21.6978243 C36.6838784,21.6978243 40.8441486,19.8626892 39.0714459,16.4525541 Z" id="Stroke-17" stroke="#4A90E2" stroke-width="3" mask="url(#mask-2)"></path>
                </g>
            </g>
        </g>
    </g>
</svg>