<?xml version="1.0" encoding="UTF-8"?>
<svg width="64px" height="850px" viewBox="0 0 64 850" version="1.1" xmlns="http://www.w3.org/2000/svg" xmlns:xlink="http://www.w3.org/1999/xlink">
    <!-- Generator: Sketch 43.2 (39069) - http://www.bohemiancoding.com/sketch -->
    <title>Group 2</title>
    <desc>Created with Sketch.</desc>
    <defs></defs>
    <g id="website" stroke="none" stroke-width="1" fill="none" fill-rule="evenodd">
        <g id="01-start-page">
            <rect id="Rectangle-4-Copy-4" fill="#FBF9F4" x="0" y="0" width="10" height="20"></rect>
            <g id="Group-2">
                <rect id="Rectangle-4-Copy-4" fill="#FBF9F4" x="0" y="0" width="10" height="20"></rect>
                <rect id="Rectangle-4-Copy-2" fill="#4990E2" x="0" y="484" width="10" height="100"></rect>
                <path d="M19.6667,92 C19.6667,93.104 18.7707,94 17.6667,94 C16.5627,94 15.6667,93.104 15.6667,92 C15.6667,90.896 16.5627,90 17.6667,90 C18.7707,90 19.6667,90.896 19.6667,92" id="Fill-45" fill="#4990E2"></path>
                <path d="M19.6667,100.9165 C19.6667,102.0205 18.7707,102.9165 17.6667,102.9165 C16.5627,102.9165 15.6667,102.0205 15.6667,100.9165 C15.6667,99.8125 16.5627,98.9165 17.6667,98.9165 C18.7707,98.9165 19.6667,99.8125 19.6667,100.9165" id="Fill-47" fill="#4990E2"></path>
                <path d="M19.6667,109.8335 C19.6667,110.9375 18.7707,111.8335 17.6667,111.8335 C16.5627,111.8335 15.6667,110.9375 15.6667,109.8335 C15.6667,108.7295 16.5627,107.8335 17.6667,107.8335 C18.7707,107.8335 19.6667,108.7295 19.6667,109.8335" id="Fill-49" fill="#4990E2"></path>
                <path d="M19.6667,118.75 C19.6667,119.854 18.7707,120.75 17.6667,120.75 C16.5627,120.75 15.6667,119.854 15.6667,118.75 C15.6667,117.646 16.5627,116.75 17.6667,116.75 C18.7707,116.75 19.6667,117.646 19.6667,118.75" id="Fill-51" fill="#4990E2"></path>
                <path d="M19.6667,127.6665 C19.6667,128.7705 18.7707,129.6665 17.6667,129.6665 C16.5627,129.6665 15.6667,128.7705 15.6667,127.6665 C15.6667,126.5625 16.5627,125.6665 17.6667,125.6665 C18.7707,125.6665 19.6667,126.5625 19.6667,127.6665" id="Fill-53" fill="#4990E2"></path>
                <path d="M19.6667,136.5835 C19.6667,137.6875 18.7707,138.5835 17.6667,138.5835 C16.5627,138.5835 15.6667,137.6875 15.6667,136.5835 C15.6667,135.4795 16.5627,134.5835 17.6667,134.5835 C18.7707,134.5835 19.6667,135.4795 19.6667,136.5835" id="Fill-55" fill="#4990E2"></path>
                <path d="M19.6667,145.5 C19.6667,146.604 18.7707,147.5 17.6667,147.5 C16.5627,147.5 15.6667,146.604 15.6667,145.5 C15.6667,144.396 16.5627,143.5 17.6667,143.5 C18.7707,143.5 19.6667,144.396 19.6667,145.5" id="Fill-57" fill="#4990E2"></path>
                <path d="M19.6667,154.4165 C19.6667,155.5205 18.7707,156.4165 17.6667,156.4165 C16.5627,156.4165 15.6667,155.5205 15.6667,154.4165 C15.6667,153.3125 16.5627,152.4165 17.6667,152.4165 C18.7707,152.4165 19.6667,153.3125 19.6667,154.4165" id="Fill-59" fill="#4990E2"></path>
                <path d="M19.6667,163.3335 C19.6667,164.4375 18.7707,165.3335 17.6667,165.3335 C16.5627,165.3335 15.6667,164.4375 15.6667,163.3335 C15.6667,162.2295 16.5627,161.3335 17.6667,161.3335 C18.7707,161.3335 19.6667,162.2295 19.6667,163.3335" id="Fill-61" fill="#4990E2"></path>
                <path d="M19.6667,172.25 C19.6667,173.354 18.7707,174.25 17.6667,174.25 C16.5627,174.25 15.6667,173.354 15.6667,172.25 C15.6667,171.146 16.5627,170.25 17.6667,170.25 C18.7707,170.25 19.6667,171.146 19.6667,172.25" id="Fill-63" fill="#4990E2"></path>
                <path d="M19.6667,181.1665 C19.6667,182.2705 18.7707,183.1665 17.6667,183.1665 C16.5627,183.1665 15.6667,182.2705 15.6667,181.1665 C15.6667,180.0625 16.5627,179.1665 17.6667,179.1665 C18.7707,179.1665 19.6667,180.0625 19.6667,181.1665" id="Fill-65" fill="#4990E2"></path>
                <path d="M27.5002,92 C27.5002,93.104 26.6042,94 25.5002,94 C24.3962,94 23.5002,93.104 23.5002,92 C23.5002,90.896 24.3962,90 25.5002,90 C26.6042,90 27.5002,90.896 27.5002,92" id="Fill-67" fill="#4990E2"></path>
                <path d="M27.5002,100.9165 C27.5002,102.0205 26.6042,102.9165 25.5002,102.9165 C24.3962,102.9165 23.5002,102.0205 23.5002,100.9165 C23.5002,99.8125 24.3962,98.9165 25.5002,98.9165 C26.6042,98.9165 27.5002,99.8125 27.5002,100.9165" id="Fill-69" fill="#4990E2"></path>
                <path d="M27.5002,109.8335 C27.5002,110.9375 26.6042,111.8335 25.5002,111.8335 C24.3962,111.8335 23.5002,110.9375 23.5002,109.8335 C23.5002,108.7295 24.3962,107.8335 25.5002,107.8335 C26.6042,107.8335 27.5002,108.7295 27.5002,109.8335" id="Fill-71" fill="#4990E2"></path>
                <path d="M27.5002,118.75 C27.5002,119.854 26.6042,120.75 25.5002,120.75 C24.3962,120.75 23.5002,119.854 23.5002,118.75 C23.5002,117.646 24.3962,116.75 25.5002,116.75 C26.6042,116.75 27.5002,117.646 27.5002,118.75" id="Fill-73" fill="#4990E2"></path>
                <path d="M27.5002,127.6665 C27.5002,128.7705 26.6042,129.6665 25.5002,129.6665 C24.3962,129.6665 23.5002,128.7705 23.5002,127.6665 C23.5002,126.5625 24.3962,125.6665 25.5002,125.6665 C26.6042,125.6665 27.5002,126.5625 27.5002,127.6665" id="Fill-75" fill="#4990E2"></path>
                <path d="M27.5002,136.5835 C27.5002,137.6875 26.6042,138.5835 25.5002,138.5835 C24.3962,138.5835 23.5002,137.6875 23.5002,136.5835 C23.5002,135.4795 24.3962,134.5835 25.5002,134.5835 C26.6042,134.5835 27.5002,135.4795 27.5002,136.5835" id="Fill-77" fill="#4990E2"></path>
                <path d="M27.5002,145.5 C27.5002,146.604 26.6042,147.5 25.5002,147.5 C24.3962,147.5 23.5002,146.604 23.5002,145.5 C23.5002,144.396 24.3962,143.5 25.5002,143.5 C26.6042,143.5 27.5002,144.396 27.5002,145.5" id="Fill-79" fill="#4990E2"></path>
                <path d="M27.5002,154.4165 C27.5002,155.5205 26.6042,156.4165 25.5002,156.4165 C24.3962,156.4165 23.5002,155.5205 23.5002,154.4165 C23.5002,153.3125 24.3962,152.4165 25.5002,152.4165 C26.6042,152.4165 27.5002,153.3125 27.5002,154.4165" id="Fill-81" fill="#4990E2"></path>
                <path d="M27.5002,163.3335 C27.5002,164.4375 26.6042,165.3335 25.5002,165.3335 C24.3962,165.3335 23.5002,164.4375 23.5002,163.3335 C23.5002,162.2295 24.3962,161.3335 25.5002,161.3335 C26.6042,161.3335 27.5002,162.2295 27.5002,163.3335" id="Fill-83" fill="#4990E2"></path>
                <path d="M27.5002,172.25 C27.5002,173.354 26.6042,174.25 25.5002,174.25 C24.3962,174.25 23.5002,173.354 23.5002,172.25 C23.5002,171.146 24.3962,170.25 25.5002,170.25 C26.6042,170.25 27.5002,171.146 27.5002,172.25" id="Fill-85" fill="#4990E2"></path>
                <path d="M27.5002,181.1665 C27.5002,182.2705 26.6042,183.1665 25.5002,183.1665 C24.3962,183.1665 23.5002,182.2705 23.5002,181.1665 C23.5002,180.0625 24.3962,179.1665 25.5002,179.1665 C26.6042,179.1665 27.5002,180.0625 27.5002,181.1665" id="Fill-87" fill="#4990E2"></path>
                <path d="M35.3332,92 C35.3332,93.104 34.4372,94 33.3332,94 C32.2292,94 31.3332,93.104 31.3332,92 C31.3332,90.896 32.2292,90 33.3332,90 C34.4372,90 35.3332,90.896 35.3332,92" id="Fill-89" fill="#4990E2"></path>
                <path d="M35.3332,100.9165 C35.3332,102.0205 34.4372,102.9165 33.3332,102.9165 C32.2292,102.9165 31.3332,102.0205 31.3332,100.9165 C31.3332,99.8125 32.2292,98.9165 33.3332,98.9165 C34.4372,98.9165 35.3332,99.8125 35.3332,100.9165" id="Fill-91" fill="#4990E2"></path>
                <path d="M35.3332,109.8335 C35.3332,110.9375 34.4372,111.8335 33.3332,111.8335 C32.2292,111.8335 31.3332,110.9375 31.3332,109.8335 C31.3332,108.7295 32.2292,107.8335 33.3332,107.8335 C34.4372,107.8335 35.3332,108.7295 35.3332,109.8335" id="Fill-93" fill="#4990E2"></path>
                <path d="M35.3332,118.75 C35.3332,119.854 34.4372,120.75 33.3332,120.75 C32.2292,120.75 31.3332,119.854 31.3332,118.75 C31.3332,117.646 32.2292,116.75 33.3332,116.75 C34.4372,116.75 35.3332,117.646 35.3332,118.75" id="Fill-95" fill="#4990E2"></path>
                <path d="M35.3332,127.6665 C35.3332,128.7705 34.4372,129.6665 33.3332,129.6665 C32.2292,129.6665 31.3332,128.7705 31.3332,127.6665 C31.3332,126.5625 32.2292,125.6665 33.3332,125.6665 C34.4372,125.6665 35.3332,126.5625 35.3332,127.6665" id="Fill-97" fill="#4990E2"></path>
                <path d="M35.3332,136.5835 C35.3332,137.6875 34.4372,138.5835 33.3332,138.5835 C32.2292,138.5835 31.3332,137.6875 31.3332,136.5835 C31.3332,135.4795 32.2292,134.5835 33.3332,134.5835 C34.4372,134.5835 35.3332,135.4795 35.3332,136.5835" id="Fill-99" fill="#4990E2"></path>
                <path d="M35.3332,145.5 C35.3332,146.604 34.4372,147.5 33.3332,147.5 C32.2292,147.5 31.3332,146.604 31.3332,145.5 C31.3332,144.396 32.2292,143.5 33.3332,143.5 C34.4372,143.5 35.3332,144.396 35.3332,145.5" id="Fill-101" fill="#4990E2"></path>
                <path d="M35.3332,154.4165 C35.3332,155.5205 34.4372,156.4165 33.3332,156.4165 C32.2292,156.4165 31.3332,155.5205 31.3332,154.4165 C31.3332,153.3125 32.2292,152.4165 33.3332,152.4165 C34.4372,152.4165 35.3332,153.3125 35.3332,154.4165" id="Fill-103" fill="#4990E2"></path>
                <path d="M35.3332,163.3335 C35.3332,164.4375 34.4372,165.3335 33.3332,165.3335 C32.2292,165.3335 31.3332,164.4375 31.3332,163.3335 C31.3332,162.2295 32.2292,161.3335 33.3332,161.3335 C34.4372,161.3335 35.3332,162.2295 35.3332,163.3335" id="Fill-105" fill="#4990E2"></path>
                <path d="M35.3332,172.25 C35.3332,173.354 34.4372,174.25 33.3332,174.25 C32.2292,174.25 31.3332,173.354 31.3332,172.25 C31.3332,171.146 32.2292,170.25 33.3332,170.25 C34.4372,170.25 35.3332,171.146 35.3332,172.25" id="Fill-107" fill="#4990E2"></path>
                <path d="M35.3332,181.1665 C35.3332,182.2705 34.4372,183.1665 33.3332,183.1665 C32.2292,183.1665 31.3332,182.2705 31.3332,181.1665 C31.3332,180.0625 32.2292,179.1665 33.3332,179.1665 C34.4372,179.1665 35.3332,180.0625 35.3332,181.1665" id="Fill-109" fill="#4990E2"></path>
                <path d="M43.1667,92 C43.1667,93.104 42.2707,94 41.1667,94 C40.0627,94 39.1667,93.104 39.1667,92 C39.1667,90.896 40.0627,90 41.1667,90 C42.2707,90 43.1667,90.896 43.1667,92" id="Fill-111" fill="#4990E2"></path>
                <path d="M43.1667,100.9165 C43.1667,102.0205 42.2707,102.9165 41.1667,102.9165 C40.0627,102.9165 39.1667,102.0205 39.1667,100.9165 C39.1667,99.8125 40.0627,98.9165 41.1667,98.9165 C42.2707,98.9165 43.1667,99.8125 43.1667,100.9165" id="Fill-113" fill="#4990E2"></path>
                <path d="M43.1667,109.8335 C43.1667,110.9375 42.2707,111.8335 41.1667,111.8335 C40.0627,111.8335 39.1667,110.9375 39.1667,109.8335 C39.1667,108.7295 40.0627,107.8335 41.1667,107.8335 C42.2707,107.8335 43.1667,108.7295 43.1667,109.8335" id="Fill-115" fill="#4990E2"></path>
                <path d="M43.1667,118.75 C43.1667,119.854 42.2707,120.75 41.1667,120.75 C40.0627,120.75 39.1667,119.854 39.1667,118.75 C39.1667,117.646 40.0627,116.75 41.1667,116.75 C42.2707,116.75 43.1667,117.646 43.1667,118.75" id="Fill-117" fill="#4990E2"></path>
                <path d="M43.1667,127.6665 C43.1667,128.7705 42.2707,129.6665 41.1667,129.6665 C40.0627,129.6665 39.1667,128.7705 39.1667,127.6665 C39.1667,126.5625 40.0627,125.6665 41.1667,125.6665 C42.2707,125.6665 43.1667,126.5625 43.1667,127.6665" id="Fill-119" fill="#4990E2"></path>
                <path d="M43.1667,136.5835 C43.1667,137.6875 42.2707,138.5835 41.1667,138.5835 C40.0627,138.5835 39.1667,137.6875 39.1667,136.5835 C39.1667,135.4795 40.0627,134.5835 41.1667,134.5835 C42.2707,134.5835 43.1667,135.4795 43.1667,136.5835" id="Fill-121" fill="#4990E2"></path>
                <path d="M43.1667,145.5 C43.1667,146.604 42.2707,147.5 41.1667,147.5 C40.0627,147.5 39.1667,146.604 39.1667,145.5 C39.1667,144.396 40.0627,143.5 41.1667,143.5 C42.2707,143.5 43.1667,144.396 43.1667,145.5" id="Fill-123" fill="#4990E2"></path>
                <path d="M43.1667,154.4165 C43.1667,155.5205 42.2707,156.4165 41.1667,156.4165 C40.0627,156.4165 39.1667,155.5205 39.1667,154.4165 C39.1667,153.3125 40.0627,152.4165 41.1667,152.4165 C42.2707,152.4165 43.1667,153.3125 43.1667,154.4165" id="Fill-125" fill="#4990E2"></path>
                <path d="M43.1667,163.3335 C43.1667,164.4375 42.2707,165.3335 41.1667,165.3335 C40.0627,165.3335 39.1667,164.4375 39.1667,163.3335 C39.1667,162.2295 40.0627,161.3335 41.1667,161.3335 C42.2707,161.3335 43.1667,162.2295 43.1667,163.3335" id="Fill-127" fill="#4990E2"></path>
                <path d="M43.1667,172.25 C43.1667,173.354 42.2707,174.25 41.1667,174.25 C40.0627,174.25 39.1667,173.354 39.1667,172.25 C39.1667,171.146 40.0627,170.25 41.1667,170.25 C42.2707,170.25 43.1667,171.146 43.1667,172.25" id="Fill-129" fill="#4990E2"></path>
                <path d="M43.1667,181.1665 C43.1667,182.2705 42.2707,183.1665 41.1667,183.1665 C40.0627,183.1665 39.1667,182.2705 39.1667,181.1665 C39.1667,180.0625 40.0627,179.1665 41.1667,179.1665 C42.2707,179.1665 43.1667,180.0625 43.1667,181.1665" id="Fill-131" fill="#4990E2"></path>
                <path d="M51,92 C51,93.104 50.104,94 49,94 C47.896,94 47,93.104 47,92 C47,90.896 47.896,90 49,90 C50.104,90 51,90.896 51,92" id="Fill-133" fill="#4990E2"></path>
                <path d="M51.0002,100.9165 C51.0002,102.0205 50.1042,102.9165 49.0002,102.9165 C47.8962,102.9165 47.0002,102.0205 47.0002,100.9165 C47.0002,99.8125 47.8962,98.9165 49.0002,98.9165 C50.1042,98.9165 51.0002,99.8125 51.0002,100.9165" id="Fill-135" fill="#4990E2"></path>
                <path d="M51.0002,109.8335 C51.0002,110.9375 50.1042,111.8335 49.0002,111.8335 C47.8962,111.8335 47.0002,110.9375 47.0002,109.8335 C47.0002,108.7295 47.8962,107.8335 49.0002,107.8335 C50.1042,107.8335 51.0002,108.7295 51.0002,109.8335" id="Fill-137" fill="#4990E2"></path>
                <path d="M51.0002,118.75 C51.0002,119.854 50.1042,120.75 49.0002,120.75 C47.8962,120.75 47.0002,119.854 47.0002,118.75 C47.0002,117.646 47.8962,116.75 49.0002,116.75 C50.1042,116.75 51.0002,117.646 51.0002,118.75" id="Fill-139" fill="#4990E2"></path>
                <path d="M51.0002,127.6665 C51.0002,128.7705 50.1042,129.6665 49.0002,129.6665 C47.8962,129.6665 47.0002,128.7705 47.0002,127.6665 C47.0002,126.5625 47.8962,125.6665 49.0002,125.6665 C50.1042,125.6665 51.0002,126.5625 51.0002,127.6665" id="Fill-141" fill="#4990E2"></path>
                <path d="M51.0002,136.5835 C51.0002,137.6875 50.1042,138.5835 49.0002,138.5835 C47.8962,138.5835 47.0002,137.6875 47.0002,136.5835 C47.0002,135.4795 47.8962,134.5835 49.0002,134.5835 C50.1042,134.5835 51.0002,135.4795 51.0002,136.5835" id="Fill-143" fill="#4990E2"></path>
                <path d="M51.0002,145.5 C51.0002,146.604 50.1042,147.5 49.0002,147.5 C47.8962,147.5 47.0002,146.604 47.0002,145.5 C47.0002,144.396 47.8962,143.5 49.0002,143.5 C50.1042,143.5 51.0002,144.396 51.0002,145.5" id="Fill-145" fill="#4990E2"></path>
                <path d="M51.0002,154.4165 C51.0002,155.5205 50.1042,156.4165 49.0002,156.4165 C47.8962,156.4165 47.0002,155.5205 47.0002,154.4165 C47.0002,153.3125 47.8962,152.4165 49.0002,152.4165 C50.1042,152.4165 51.0002,153.3125 51.0002,154.4165" id="Fill-147" fill="#4990E2"></path>
                <path d="M51.0002,163.3335 C51.0002,164.4375 50.1042,165.3335 49.0002,165.3335 C47.8962,165.3335 47.0002,164.4375 47.0002,163.3335 C47.0002,162.2295 47.8962,161.3335 49.0002,161.3335 C50.1042,161.3335 51.0002,162.2295 51.0002,163.3335" id="Fill-149" fill="#4990E2"></path>
                <path d="M51.0002,172.25 C51.0002,173.354 50.1042,174.25 49.0002,174.25 C47.8962,174.25 47.0002,173.354 47.0002,172.25 C47.0002,171.146 47.8962,170.25 49.0002,170.25 C50.1042,170.25 51.0002,171.146 51.0002,172.25" id="Fill-151" fill="#4990E2"></path>
                <path d="M51.0002,181.1665 C51.0002,182.2705 50.1042,183.1665 49.0002,183.1665 C47.8962,183.1665 47.0002,182.2705 47.0002,181.1665 C47.0002,180.0625 47.8962,179.1665 49.0002,179.1665 C50.1042,179.1665 51.0002,180.0625 51.0002,181.1665" id="Fill-153" fill="#4990E2"></path>
                <text id="&gt;" transform="translate(58.500000, 460.000000) scale(-1, 1) translate(-58.500000, -460.000000) " font-family="PingFangTC-Regular, PingFang TC" font-size="18" font-weight="normal" line-spacing="20" fill="#4990E2">
                    <tspan x="53" y="469">&gt;</tspan>
                </text>
                <text id="&gt;-copy" transform="translate(43.500000, 460.000000) scale(-1, 1) translate(-43.500000, -460.000000) " font-family="PingFangTC-Regular, PingFang TC" font-size="18" font-weight="normal" line-spacing="20" fill="#4990E2">
                    <tspan x="38" y="469">&gt;</tspan>
                </text>
                <g id="Page-1-Copy-39" transform="translate(0.000000, 369.000000)" fill="#4990E2">
                    <polygon id="Fill-1" points="0 6.63628472 12.7817565 6.63628472 12.7817565 5.4296875 0 5.4296875"></polygon>
                    <polygon id="Fill-2" points="5.75217391 12.0659722 7.02958261 12.0659722 7.02958261 0 5.75217391 0"></polygon>
                </g>
                <g id="Page-1-Copy-40" transform="translate(0.000000, 327.000000)" fill="#4990E2">
                    <polygon id="Fill-1" points="0 6.63628472 12.7817565 6.63628472 12.7817565 5.4296875 0 5.4296875"></polygon>
                    <polygon id="Fill-2" points="5.75217391 12.0659722 7.02958261 12.0659722 7.02958261 0 5.75217391 0"></polygon>
                </g>
                <g id="Page-1-Copy-41" transform="translate(0.000000, 348.000000)" fill="#4990E2">
                    <polygon id="Fill-1" points="0 6.63628472 12.7817565 6.63628472 12.7817565 5.4296875 0 5.4296875"></polygon>
                    <polygon id="Fill-2" points="5.75217391 12.0659722 7.02958261 12.0659722 7.02958261 0 5.75217391 0"></polygon>
                </g>
                <g id="Page-1-Copy-42" transform="translate(0.000000, 306.000000)" fill="#4990E2">
                    <polygon id="Fill-1" points="0 6.63628472 12.7817565 6.63628472 12.7817565 5.4296875 0 5.4296875"></polygon>
                    <polygon id="Fill-2" points="5.75217391 12.0659722 7.02958261 12.0659722 7.02958261 0 5.75217391 0"></polygon>
                </g>
                <g id="Page-1-Copy-43" transform="translate(21.000000, 369.000000)" fill="#4990E2">
                    <polygon id="Fill-1" points="0 6.63628472 12.7817565 6.63628472 12.7817565 5.4296875 0 5.4296875"></polygon>
                    <polygon id="Fill-2" points="5.75217391 12.0659722 7.02958261 12.0659722 7.02958261 0 5.75217391 0"></polygon>
                </g>
                <g id="Page-1-Copy-44" transform="translate(21.000000, 327.000000)" fill="#4990E2">
                    <polygon id="Fill-1" points="0 6.63628472 12.7817565 6.63628472 12.7817565 5.4296875 0 5.4296875"></polygon>
                    <polygon id="Fill-2" points="5.75217391 12.0659722 7.02958261 12.0659722 7.02958261 0 5.75217391 0"></polygon>
                </g>
                <g id="Page-1-Copy-45" transform="translate(21.000000, 348.000000)" fill="#4990E2">
                    <polygon id="Fill-1" points="0 6.63628472 12.7817565 6.63628472 12.7817565 5.4296875 0 5.4296875"></polygon>
                    <polygon id="Fill-2" points="5.75217391 12.0659722 7.02958261 12.0659722 7.02958261 0 5.75217391 0"></polygon>
                </g>
                <g id="Group" transform="translate(21.000000, 671.000000)" fill="#4990E2">
                    <path d="M4,47 C4,48.104 3.104,49 2,49 C0.896,49 0,48.104 0,47 C0,45.896 0.896,45 2,45 C3.104,45 4,45.896 4,47" id="Fill-11-Copy"></path>
                    <path d="M4,56 C4,57.104 3.104,58 2,58 C0.896,58 0,57.104 0,56 C0,54.896 0.896,54 2,54 C3.104,54 4,54.896 4,56" id="Fill-13-Copy"></path>
                    <path d="M4,65 C4,66.104 3.104,67 2,67 C0.896,67 0,66.104 0,65 C0,63.896 0.896,63 2,63 C3.104,63 4,63.896 4,65" id="Fill-15-Copy"></path>
                    <path d="M4,74 C4,75.104 3.104,76 2,76 C0.896,76 0,75.104 0,74 C0,72.896 0.896,72 2,72 C3.104,72 4,72.896 4,74" id="Fill-17-Copy"></path>
                    <path d="M4,83 C4,84.104 3.104,85 2,85 C0.896,85 0,84.104 0,83 C0,81.896 0.896,81 2,81 C3.104,81 4,81.896 4,83" id="Fill-19-Copy"></path>
                    <path d="M2,94 C0.896,94 0,93.104 0,92 C0,90.896 0.896,90 2,90 C3.104,90 4,90.896 4,92 C4,93.104 3.104,94 2,94 Z" id="Fill-21-Copy"></path>
                    <path d="M12,47 C12,48.104 11.104,49 10,49 C8.896,49 8,48.104 8,47 C8,45.896 8.896,45 10,45 C11.104,45 12,45.896 12,47" id="Fill-33-Copy"></path>
                    <path d="M12,56 C12,57.104 11.104,58 10,58 C8.896,58 8,57.104 8,56 C8,54.896 8.896,54 10,54 C11.104,54 12,54.896 12,56" id="Fill-35-Copy"></path>
                    <path d="M12,65 C12,66.104 11.104,67 10,67 C8.896,67 8,66.104 8,65 C8,63.896 8.896,63 10,63 C11.104,63 12,63.896 12,65" id="Fill-37-Copy"></path>
                    <path d="M12,74 C12,75.104 11.104,76 10,76 C8.896,76 8,75.104 8,74 C8,72.896 8.896,72 10,72 C11.104,72 12,72.896 12,74" id="Fill-39-Copy"></path>
                    <path d="M12,83 C12,84.104 11.104,85 10,85 C8.896,85 8,84.104 8,83 C8,81.896 8.896,81 10,81 C11.104,81 12,81.896 12,83" id="Fill-41-Copy"></path>
                    <path d="M10,94 C8.896,94 8,93.104 8,92 C8,90.896 8.896,90 10,90 C11.104,90 12,90.896 12,92 C12,93.104 11.104,94 10,94 Z" id="Fill-43-Copy"></path>
                    <path d="M20,47 C20,48.104 19.104,49 18,49 C16.896,49 16,48.104 16,47 C16,45.896 16.896,45 18,45 C19.104,45 20,45.896 20,47" id="Fill-55-Copy"></path>
                    <path d="M20,56 C20,57.104 19.104,58 18,58 C16.896,58 16,57.104 16,56 C16,54.896 16.896,54 18,54 C19.104,54 20,54.896 20,56" id="Fill-57-Copy"></path>
                    <path d="M20,65 C20,66.104 19.104,67 18,67 C16.896,67 16,66.104 16,65 C16,63.896 16.896,63 18,63 C19.104,63 20,63.896 20,65" id="Fill-59-Copy"></path>
                    <path d="M20,74 C20,75.104 19.104,76 18,76 C16.896,76 16,75.104 16,74 C16,72.896 16.896,72 18,72 C19.104,72 20,72.896 20,74" id="Fill-61-Copy"></path>
                    <path d="M20,83 C20,84.104 19.104,85 18,85 C16.896,85 16,84.104 16,83 C16,81.896 16.896,81 18,81 C19.104,81 20,81.896 20,83" id="Fill-63-Copy"></path>
                    <path d="M20,92 C20,93.104 19.104,94 18,94 C16.896,94 16,93.104 16,92 C16,90.896 16.896,90 18,90 C19.104,90 20,90.896 20,92" id="Fill-65-Copy"></path>
                    <path d="M28,47 C28,48.104 27.104,49 26,49 C24.896,49 24,48.104 24,47 C24,45.896 24.896,45 26,45 C27.104,45 28,45.896 28,47" id="Fill-77-Copy"></path>
                    <path d="M28,56 C28,57.104 27.104,58 26,58 C24.896,58 24,57.104 24,56 C24,54.896 24.896,54 26,54 C27.104,54 28,54.896 28,56" id="Fill-79-Copy"></path>
                    <path d="M28,65 C28,66.104 27.104,67 26,67 C24.896,67 24,66.104 24,65 C24,63.896 24.896,63 26,63 C27.104,63 28,63.896 28,65" id="Fill-81-Copy"></path>
                    <path d="M28,74 C28,75.104 27.104,76 26,76 C24.896,76 24,75.104 24,74 C24,72.896 24.896,72 26,72 C27.104,72 28,72.896 28,74" id="Fill-83-Copy"></path>
                    <path d="M28,83 C28,84.104 27.104,85 26,85 C24.896,85 24,84.104 24,83 C24,81.896 24.896,81 26,81 C27.104,81 28,81.896 28,83" id="Fill-85-Copy"></path>
                    <path d="M28,92 C28,93.104 27.104,94 26,94 C24.896,94 24,93.104 24,92 C24,90.896 24.896,90 26,90 C27.104,90 28,90.896 28,92" id="Fill-87-Copy"></path>
                    <path d="M35,47 C35,48.104 34.104,49 33,49 C31.896,49 31,48.104 31,47 C31,45.896 31.896,45 33,45 C34.104,45 35,45.896 35,47" id="Fill-99-Copy"></path>
                    <path d="M35,56 C35,57.104 34.104,58 33,58 C31.896,58 31,57.104 31,56 C31,54.896 31.896,54 33,54 C34.104,54 35,54.896 35,56" id="Fill-101-Copy"></path>
                    <path d="M35,65 C35,66.104 34.104,67 33,67 C31.896,67 31,66.104 31,65 C31,63.896 31.896,63 33,63 C34.104,63 35,63.896 35,65" id="Fill-103-Copy"></path>
                    <path d="M35,74 C35,75.104 34.104,76 33,76 C31.896,76 31,75.104 31,74 C31,72.896 31.896,72 33,72 C34.104,72 35,72.896 35,74" id="Fill-105-Copy"></path>
                    <path d="M35,83 C35,84.104 34.104,85 33,85 C31.896,85 31,84.104 31,83 C31,81.896 31.896,81 33,81 C34.104,81 35,81.896 35,83" id="Fill-107-Copy"></path>
                    <path d="M35,92 C35,93.104 34.104,94 33,94 C31.896,94 31,93.104 31,92 C31,90.896 31.896,90 33,90 C34.104,90 35,90.896 35,92" id="Fill-109-Copy"></path>
                    <g id="Page-1-Copy-65" transform="translate(0.000000, 21.000000)">
                        <polygon id="Fill-1" points="0 6.63628472 12.7817565 6.63628472 12.7817565 5.4296875 0 5.4296875"></polygon>
                        <polygon id="Fill-2" points="5.75217391 12.0659722 7.02958261 12.0659722 7.02958261 0 5.75217391 0"></polygon>
                    </g>
                    <g id="Page-1-Copy-66">
                        <polygon id="Fill-1" points="0 6.63628472 12.7817565 6.63628472 12.7817565 5.4296875 0 5.4296875"></polygon>
                        <polygon id="Fill-2" points="5.75217391 12.0659722 7.02958261 12.0659722 7.02958261 0 5.75217391 0"></polygon>
                    </g>
                    <g id="Page-1-Copy-67" transform="translate(21.000000, 21.000000)">
                        <polygon id="Fill-1" points="0 6.63628472 12.7817565 6.63628472 12.7817565 5.4296875 0 5.4296875"></polygon>
                        <polygon id="Fill-2" points="5.75217391 12.0659722 7.02958261 12.0659722 7.02958261 0 5.75217391 0"></polygon>
                    </g>
                    <g id="Page-1-Copy-68" transform="translate(21.000000, 0.000000)">
                        <polygon id="Fill-1" points="0 6.63628472 12.7817565 6.63628472 12.7817565 5.4296875 0 5.4296875"></polygon>
                        <polygon id="Fill-2" points="5.75217391 12.0659722 7.02958261 12.0659722 7.02958261 0 5.75217391 0"></polygon>
                    </g>
                </g>
                <g id="Page-1-Copy-46" transform="translate(21.000000, 306.000000)" fill="#4990E2">
                    <polygon id="Fill-1" points="0 6.63628472 12.7817565 6.63628472 12.7817565 5.4296875 0 5.4296875"></polygon>
                    <polygon id="Fill-2" points="5.75217391 12.0659722 7.02958261 12.0659722 7.02958261 0 5.75217391 0"></polygon>
                </g>
                <g id="Page-1-Copy-47" transform="translate(43.000000, 369.000000)" fill="#4990E2">
                    <polygon id="Fill-1" points="0 6.63628472 12.7817565 6.63628472 12.7817565 5.4296875 0 5.4296875"></polygon>
                    <polygon id="Fill-2" points="5.75217391 12.0659722 7.02958261 12.0659722 7.02958261 0 5.75217391 0"></polygon>
                </g>
                <g id="Page-1-Copy-48" transform="translate(43.000000, 327.000000)" fill="#4990E2">
                    <polygon id="Fill-1" points="0 6.63628472 12.7817565 6.63628472 12.7817565 5.4296875 0 5.4296875"></polygon>
                    <polygon id="Fill-2" points="5.75217391 12.0659722 7.02958261 12.0659722 7.02958261 0 5.75217391 0"></polygon>
                </g>
                <g id="Page-1-Copy-60" transform="translate(43.000000, 229.000000)" fill="#4990E2">
                    <polygon id="Fill-1" points="0 6.63628472 12.7817565 6.63628472 12.7817565 5.4296875 0 5.4296875"></polygon>
                    <polygon id="Fill-2" points="5.75217391 12.0659722 7.02958261 12.0659722 7.02958261 0 5.75217391 0"></polygon>
                </g>
                <g id="Page-1-Copy-62" transform="translate(43.000000, 824.000000)" fill="#4990E2">
                    <polygon id="Fill-1" points="0 6.63628472 12.7817565 6.63628472 12.7817565 5.4296875 0 5.4296875"></polygon>
                    <polygon id="Fill-2" points="5.75217391 12.0659722 7.02958261 12.0659722 7.02958261 0 5.75217391 0"></polygon>
                </g>
                <g id="Page-1-Copy-53" transform="translate(43.000000, 348.000000)" fill="#4990E2">
                    <polygon id="Fill-1" points="0 6.63628472 12.7817565 6.63628472 12.7817565 5.4296875 0 5.4296875"></polygon>
                    <polygon id="Fill-2" points="5.75217391 12.0659722 7.02958261 12.0659722 7.02958261 0 5.75217391 0"></polygon>
                </g>
                <g id="Page-1-Copy-54" transform="translate(43.000000, 306.000000)" fill="#4990E2">
                    <polygon id="Fill-1" points="0 6.63628472 12.7817565 6.63628472 12.7817565 5.4296875 0 5.4296875"></polygon>
                    <polygon id="Fill-2" points="5.75217391 12.0659722 7.02958261 12.0659722 7.02958261 0 5.75217391 0"></polygon>
                </g>
                <rect id="Rectangle-4-Copy-3" fill="#FBF9F4" x="0" y="830" width="10" height="20"></rect>
                <rect id="Rectangle-4-Copy-5" fill="#FBF9F4" x="0" y="830" width="10" height="20"></rect>
                <rect id="Rectangle-4-Copy-6" fill="#FBF9F4" x="0" y="0" width="10" height="20"></rect>
                <g id="Group-16-Copy" transform="translate(6.000000, 26.000000)">
                    <circle id="Oval-Copy-2" stroke="#4990E2" stroke-width="2" cx="22.5" cy="22.5" r="21.5"></circle>
                    <path d="M22.0523077,13.8495055 L22.0523077,12 L23.1800549,12 L23.1800549,13.8495055 C24.4882418,13.9397253 25.5708791,14.3231593 26.3828571,14.9998077 C27.2850549,15.7666758 27.8489286,16.939533 28.074478,18.5183791 L26.2700824,18.5183791 C26.1121978,17.4357418 25.7062088,16.6463187 25.0746703,16.1275549 C24.5784615,15.7215659 23.9469231,15.4960165 23.1800549,15.4057967 L23.1800549,21.3151923 C24.5333516,21.8114011 25.4581044,22.1497253 25.9543132,22.3527198 C27.5331593,23.1872527 28.3451374,24.3826648 28.3451374,25.961511 C28.3451374,27.5403571 27.7812637,28.7357692 26.6760714,29.5251923 C25.7738736,30.1341758 24.6235714,30.4725 23.1800549,30.5401648 L23.1800549,32.525 L22.0523077,32.525 L22.0523077,30.5401648 C20.5411264,30.4499451 19.3908242,29.9762912 18.5788462,29.1417582 C17.6766484,28.2395604 17.1578846,26.9088187 17,25.1044231 L18.8269505,25.1044231 C18.9622802,26.4577198 19.3231593,27.4275824 19.9095879,28.0365659 C20.4057967,28.5553297 21.1275549,28.8710989 22.0523077,28.9613187 L22.0523077,22.7135989 C21.2403297,22.3978297 20.4509066,22.1046154 19.6614835,21.833956 C18.0375275,21.021978 17.2481044,19.8265659 17.2481044,18.2477198 C17.2481044,16.7816484 17.7668681,15.6539011 18.8495055,14.887033 C19.6840385,14.2554945 20.7441209,13.8946154 22.0523077,13.8495055 Z M23.1800549,23.1195879 L23.1800549,28.9613187 C24.1273626,28.8936538 24.9167857,28.6455495 25.5032143,28.1944505 C26.1573077,27.6756868 26.4956319,26.9539286 26.4956319,26.0066209 C26.4956319,24.9014286 25.6836538,24.0443407 24.1048077,23.4353571 C23.7890385,23.3225824 23.4732692,23.2098077 23.1800549,23.1195879 Z M22.0523077,20.9092033 L22.0523077,15.4057967 C21.2403297,15.4509066 20.5862363,15.676456 20.1125824,16.0373352 C19.4359341,16.510989 19.0976099,17.2553022 19.0976099,18.2477198 C19.0976099,19.2626923 19.887033,20.0746703 21.4884341,20.7062088 L22.0523077,20.9092033 Z" id="$" fill="#4990E2"></path>
                </g>
            </g>
        </g>
    </g>
</svg>