<?xml version="1.0" encoding="UTF-8" standalone="no"?>
<svg width="84px" height="84px" viewBox="0 0 84 84" version="1.1" xmlns="http://www.w3.org/2000/svg" xmlns:xlink="http://www.w3.org/1999/xlink">
    <!-- Generator: Sketch 43.1 (39012) - http://www.bohemiancoding.com/sketch -->
    <title>Page 1</title>
    <desc>Created with Sketch.</desc>
    <defs></defs>
    <g id="website" stroke="none" stroke-width="1" fill="none" fill-rule="evenodd">
        <g id="02-step-page" transform="translate(-296.000000, -844.000000)">
            <g id="A-content-01-content" transform="translate(170.000000, 790.000000)">
                <g id="money01" transform="translate(128.000000, 18.000000)">
                    <g id="Page-1" transform="translate(0.000000, 38.000000)">
                        <path d="M79.6694215,40 C79.6694215,61.9087603 61.9087603,79.6694215 40,79.6694215 C18.0912397,79.6694215 0.330578512,61.9087603 0.330578512,40 C0.330578512,18.0912397 18.0912397,0.330578512 40,0.330578512 C61.9087603,0.330578512 79.6694215,18.0912397 79.6694215,40" id="Fill-1" fill="#FFFEFA"></path>
                        <path d="M79.6694215,40 C79.6694215,61.9087603 61.9087603,79.6694215 40,79.6694215 C18.0912397,79.6694215 0.330578512,61.9087603 0.330578512,40 C0.330578512,18.0912397 18.0912397,0.330578512 40,0.330578512 C61.9087603,0.330578512 79.6694215,18.0912397 79.6694215,40 Z" id="Stroke-3" stroke="#4A90E2" stroke-width="3"></path>
                        <path d="M40.1652893,47.8529587 L40.1652893,62.4711405 C40.1652893,62.4711405 49.6072727,72.2608926 63.4320661,60.4612231 C58.581157,52.9207273 50.0826446,47.8939504 40.1652893,47.8529587" id="Fill-5" fill="#FFFEFA"></path>
                        <path d="M40.1652893,47.8529587 L40.1652893,62.4711405 C40.1652893,62.4711405 49.6072727,72.2608926 63.4320661,60.4612231 C58.581157,52.9207273 50.0826446,47.8939504 40.1652893,47.8529587 Z" id="Stroke-7" stroke="#4A90E2" stroke-width="3"></path>
                        <path d="M40.1198678,62.4713388 C40.1198678,62.4713388 30.6084628,72.3305124 16.7010248,60.3285289 C14.9793719,62.9705124 13.7205289,65.924562 13.0329256,69.0835702 C20.1106116,75.6495207 29.5836694,79.6693554 40.0001983,79.6693554 C50.4167273,79.6693554 59.8897851,75.6488595 66.9681322,69.0822479 C66.2924298,65.9767934 65.064,63.0690248 63.3866446,60.4614215 C49.5618512,72.2604298 40.1198678,62.4713388 40.1198678,62.4713388" id="Fill-9" fill="#FFFEFA"></path>
                        <path d="M40.1198678,62.4713388 C40.1198678,62.4713388 30.6084628,72.3305124 16.7010248,60.3285289 C14.9793719,62.9705124 13.7205289,65.924562 13.0329256,69.0835702 C20.1106116,75.6495207 29.5836694,79.6693554 40.0001983,79.6693554 C50.4167273,79.6693554 59.8897851,75.6488595 66.9681322,69.0822479 C66.2924298,65.9767934 65.064,63.0690248 63.3866446,60.4614215 C49.5618512,72.2604298 40.1198678,62.4713388 40.1198678,62.4713388 Z" id="Stroke-11" stroke="#4A90E2" stroke-width="3"></path>
                        <path d="M40.1198678,68.4163967 L38.621686,66.282843 L33.1168926,79.061686 C35.3535868,79.4537521 37.6511074,79.6692893 40.0001983,79.6692893 C42.4636694,79.6692893 44.8709421,79.4332562 47.2107769,79.0035041 L41.6775537,66.282843 L40.1198678,68.4163967 Z" id="Fill-13" fill="#4A90E2"></path>
                        <path d="M40.1198678,68.4163967 L38.621686,66.282843 L33.1168926,79.061686 C35.3535868,79.4537521 37.6511074,79.6692893 40.0001983,79.6692893 C42.4636694,79.6692893 44.8709421,79.4332562 47.2107769,79.0035041 L41.6775537,66.282843 L40.1198678,68.4163967 Z" id="Stroke-15" stroke="#4A90E2" stroke-width="3" stroke-linecap="round" stroke-linejoin="round"></path>
                        <path d="M62.411438,38.1423471 C62.411438,40.3929256 60.5873058,42.2170579 58.3367273,42.2170579 C56.0861488,42.2170579 54.2620165,40.3929256 54.2620165,38.1423471 C54.2620165,35.8917686 56.0861488,34.0676364 58.3367273,34.0676364 C60.5873058,34.0676364 62.411438,35.8917686 62.411438,38.1423471" id="Fill-17" fill="#FFFEFA"></path>
                        <path d="M62.411438,38.1423471 C62.411438,40.3929256 60.5873058,42.2170579 58.3367273,42.2170579 C56.0861488,42.2170579 54.2620165,40.3929256 54.2620165,38.1423471 C54.2620165,35.8917686 56.0861488,34.0676364 58.3367273,34.0676364 C60.5873058,34.0676364 62.411438,35.8917686 62.411438,38.1423471 Z" id="Stroke-19" stroke="#4A90E2" stroke-width="3"></path>
                        <path d="M25.9778512,38.1423471 C25.9778512,40.3929256 24.153719,42.2170579 21.9031405,42.2170579 C19.652562,42.2170579 17.8284298,40.3929256 17.8284298,38.1423471 C17.8284298,35.8917686 19.652562,34.0676364 21.9031405,34.0676364 C24.153719,34.0676364 25.9778512,35.8917686 25.9778512,38.1423471" id="Fill-21" fill="#FFFEFA"></path>
                        <path d="M25.9778512,38.1423471 C25.9778512,40.3929256 24.153719,42.2170579 21.9031405,42.2170579 C19.652562,42.2170579 17.8284298,40.3929256 17.8284298,38.1423471 C17.8284298,35.8917686 19.652562,34.0676364 21.9031405,34.0676364 C24.153719,34.0676364 25.9778512,35.8917686 25.9778512,38.1423471 Z" id="Stroke-23" stroke="#4A90E2" stroke-width="3"></path>
                        <path d="M42.3851901,67.5049256 L37.6149421,67.5049256 C36.8830413,67.5049256 36.2846942,66.9065785 36.2846942,66.1746777 L36.2846942,58.7677355 C36.2846942,58.0364959 36.8830413,57.4374876 37.6149421,57.4374876 L42.3851901,57.4374876 C43.1164298,57.4374876 43.715438,58.0364959 43.715438,58.7677355 L43.715438,66.1746777 C43.715438,66.9065785 43.1164298,67.5049256 42.3851901,67.5049256" id="Fill-25" fill="#4A90E2"></path>
                        <path d="M42.3851901,67.5049256 L37.6149421,67.5049256 C36.8830413,67.5049256 36.2846942,66.9065785 36.2846942,66.1746777 L36.2846942,58.7677355 C36.2846942,58.0364959 36.8830413,57.4374876 37.6149421,57.4374876 L42.3851901,57.4374876 C43.1164298,57.4374876 43.715438,58.0364959 43.715438,58.7677355 L43.715438,66.1746777 C43.715438,66.9065785 43.1164298,67.5049256 42.3851901,67.5049256 Z" id="Stroke-27" stroke="#4A90E2" stroke-width="3"></path>
                        <path d="M40.1652893,62.4713388 L40.1652893,47.853157 C40.1652893,47.8524959 40.0628099,47.8498512 40.0224793,47.8498512 C30.214876,47.8498512 21.621157,52.8316694 16.7352066,60.3285289 C30.6426446,72.3305124 40.1652893,62.4713388 40.1652893,62.4713388" id="Fill-29" fill="#FFFEFA"></path>
                        <path d="M40.1652893,62.4713388 L40.1652893,47.853157 C40.1652893,47.8524959 40.0628099,47.8498512 40.0224793,47.8498512 C30.214876,47.8498512 21.621157,52.8316694 16.7352066,60.3285289 C30.6426446,72.3305124 40.1652893,62.4713388 40.1652893,62.4713388 Z" id="Stroke-31" stroke="#4A90E2" stroke-width="3"></path>
                        <path d="M31.205686,21.9629752 C31.205686,21.9629752 42.8096529,33.6945455 58.0162645,29.6052893 L58.0162645,29.1133884 C58.0162645,19.0836364 49.8648595,10.8773554 39.8344463,10.8773554 C29.8046942,10.8773554 21.6526281,19.0836364 21.6526281,29.1133884 L21.6526281,31.3203306 C24.2972562,30.4614876 29.1263471,28.117686 31.205686,21.9629752" id="Fill-33" fill="#4A90E2"></path>
                        <path d="M31.205686,21.9629752 C31.205686,21.9629752 42.8096529,33.6945455 58.0162645,29.6052893 L58.0162645,29.1133884 C58.0162645,19.0836364 49.8648595,10.8773554 39.8344463,10.8773554 C29.8046942,10.8773554 21.6526281,19.0836364 21.6526281,29.1133884 L21.6526281,31.3203306 C24.2972562,30.4614876 29.1263471,28.117686 31.205686,21.9629752 Z" id="Stroke-35" stroke="#4A90E2" stroke-width="3"></path>
                        <path d="M31.205686,21.9629752 C29.1263471,28.117686 24.2972562,30.4614876 21.6526281,31.3203306 L21.6526281,44.2347107 C21.6526281,54.265124 29.8046942,62.471405 39.8344463,62.471405 C49.8648595,62.471405 58.0162645,54.265124 58.0162645,44.2347107 L58.0162645,29.6052893 C42.8096529,33.6945455 31.205686,21.9629752 31.205686,21.9629752" id="Fill-37" fill="#FFFEFA"></path>
                        <path d="M31.205686,21.9629752 C29.1263471,28.117686 24.2972562,30.4614876 21.6526281,31.3203306 L21.6526281,44.2347107 C21.6526281,54.265124 29.8046942,62.471405 39.8344463,62.471405 C49.8648595,62.471405 58.0162645,54.265124 58.0162645,44.2347107 L58.0162645,29.6052893 C42.8096529,33.6945455 31.205686,21.9629752 31.205686,21.9629752 Z" id="Stroke-39" stroke="#4A90E2" stroke-width="3"></path>
                        <path d="M55.6400661,39.3408264 C55.6400661,43.2793388 52.4473388,46.471405 48.5094876,46.471405 C44.5709752,46.471405 41.3782479,43.2793388 41.3782479,39.3408264 C41.3782479,35.402314 44.5709752,32.2095868 48.5094876,32.2095868 C52.4473388,32.2095868 55.6400661,35.402314 55.6400661,39.3408264" id="Fill-41" fill="#FFFEFA"></path>
                        <path d="M55.6400661,39.3408264 C55.6400661,43.2793388 52.4473388,46.471405 48.5094876,46.471405 C44.5709752,46.471405 41.3782479,43.2793388 41.3782479,39.3408264 C41.3782479,35.402314 44.5709752,32.2095868 48.5094876,32.2095868 C52.4473388,32.2095868 55.6400661,35.402314 55.6400661,39.3408264 Z" id="Stroke-43" stroke="#4A90E2" stroke-width="3"></path>
                        <path d="M24.3599339,39.3408264 C24.3599339,43.2793388 27.5526612,46.471405 31.4911736,46.471405 C35.4290248,46.471405 38.6217521,43.2793388 38.6217521,39.3408264 C38.6217521,35.402314 35.4290248,32.2095868 31.4911736,32.2095868 C27.5526612,32.2095868 24.3599339,35.402314 24.3599339,39.3408264" id="Fill-45" fill="#FFFEFA"></path>
                        <path d="M24.3599339,39.3408264 C24.3599339,43.2793388 27.5526612,46.471405 31.4911736,46.471405 C35.4290248,46.471405 38.6217521,43.2793388 38.6217521,39.3408264 C38.6217521,35.402314 35.4290248,32.2095868 31.4911736,32.2095868 C27.5526612,32.2095868 24.3599339,35.402314 24.3599339,39.3408264 Z" id="Stroke-47" stroke="#4A90E2" stroke-width="3"></path>
                        <path d="M38.6217521,39.3408264 L41.3781157,39.3408264" id="Stroke-49" stroke="#4A90E2" stroke-width="3"></path>
                        <path d="M44.3145785,55.1900826 C47.0649917,55.1847934 49.4286281,53.4545455 50.3621818,50.8892562 C50.7998678,49.6879339 48.8831736,49.1702479 48.4494545,50.3616529 C47.8200331,52.0919008 46.1347438,53.2033058 44.3145785,53.2066116 C43.0385455,53.2092562 43.0359008,55.1927273 44.3145785,55.1900826" id="Fill-51" fill="#4A90E2"></path>
                    </g>
                </g>
            </g>
        </g>
    </g>
</svg>