<?xml version="1.0" encoding="UTF-8" standalone="no"?>
<svg width="83px" height="83px" viewBox="0 0 83 83" version="1.1" xmlns="http://www.w3.org/2000/svg" xmlns:xlink="http://www.w3.org/1999/xlink">
    <!-- Generator: Sketch 43.1 (39012) - http://www.bohemiancoding.com/sketch -->
    <title>Page 1</title>
    <desc>Created with Sketch.</desc>
    <defs></defs>
    <g id="website" stroke="none" stroke-width="1" fill="none" fill-rule="evenodd">
        <g id="04-taxB" transform="translate(-834.000000, -2248.000000)">
            <g id="Page-1" transform="translate(835.000000, 2249.000000)">
                <path d="M79.8389,40.1699 C79.8389,62.0779 62.0779,79.8379 40.1699,79.8379 C18.2609,79.8379 0.4999,62.0779 0.4999,40.1699 C0.4999,18.2599 18.2609,0.4999 40.1699,0.4999 C62.0779,0.4999 79.8389,18.2599 79.8389,40.1699" id="Fill-1" fill="#FFFFFF"></path>
                <path d="M79.8389,40.1699 C79.8389,62.0779 62.0779,79.8379 40.1699,79.8379 C18.2609,79.8379 0.4999,62.0779 0.4999,40.1699 C0.4999,18.2599 18.2609,0.4999 40.1699,0.4999 C62.0779,0.4999 79.8389,18.2599 79.8389,40.1699 Z" id="Stroke-3" stroke="#4B87C6" stroke-width="3"></path>
                <path d="M34.8003,33.9971 C34.8003,26.9671 29.1023,21.2681 22.0733,21.2681 C15.0433,21.2681 9.3453,26.9671 9.3453,33.9971 C9.3453,38.0481 11.2453,41.6491 14.1953,43.9791 C13.8223,45.0091 13.6093,46.1131 13.6093,47.2711 C13.6093,52.6131 17.9403,56.9441 23.2833,56.9441 C28.6273,56.9441 32.9583,52.6131 32.9583,47.2711 C32.9583,45.4871 32.4673,43.8211 31.6253,42.3871 C33.5963,40.1451 34.8003,37.2151 34.8003,33.9971" id="Fill-5" fill="#FFFFFF"></path>
                <path d="M34.8003,33.9971 C34.8003,26.9671 29.1023,21.2681 22.0733,21.2681 C15.0433,21.2681 9.3453,26.9671 9.3453,33.9971 C9.3453,38.0481 11.2453,41.6491 14.1953,43.9791 C13.8223,45.0091 13.6093,46.1131 13.6093,47.2711 C13.6093,52.6131 17.9403,56.9441 23.2833,56.9441 C28.6273,56.9441 32.9583,52.6131 32.9583,47.2711 C32.9583,45.4871 32.4673,43.8211 31.6253,42.3871 C33.5963,40.1451 34.8003,37.2151 34.8003,33.9971 Z" id="Stroke-7" stroke="#4B87C6" stroke-width="3"></path>
                <path d="M70.3276,33.9971 C70.3276,26.9671 64.6296,21.2681 57.5996,21.2681 C50.5706,21.2681 44.8726,26.9671 44.8726,33.9971 C44.8726,37.2151 46.0766,40.1451 48.0476,42.3871 C47.2056,43.8211 46.7146,45.4871 46.7146,47.2711 C46.7146,52.6131 51.0456,56.9441 56.3896,56.9441 C61.7326,56.9441 66.0636,52.6131 66.0636,47.2711 C66.0636,46.1131 65.8496,45.0091 65.4776,43.9791 C68.4276,41.6491 70.3276,38.0481 70.3276,33.9971" id="Fill-9" fill="#FFFFFF"></path>
                <path d="M70.3276,33.9971 C70.3276,26.9671 64.6296,21.2681 57.5996,21.2681 C50.5706,21.2681 44.8726,26.9671 44.8726,33.9971 C44.8726,37.2151 46.0766,40.1451 48.0476,42.3871 C47.2056,43.8211 46.7146,45.4871 46.7146,47.2711 C46.7146,52.6131 51.0456,56.9441 56.3896,56.9441 C61.7326,56.9441 66.0636,52.6131 66.0636,47.2711 C66.0636,46.1131 65.8496,45.0091 65.4776,43.9791 C68.4276,41.6491 70.3276,38.0481 70.3276,33.9971 Z" id="Stroke-11" stroke="#4B87C6" stroke-width="3"></path>
                <path d="M40.335,48.0215 L40.335,62.6405 C40.335,62.6405 49.777,72.4295 63.602,60.6305 C58.751,53.0895 50.252,48.0625 40.335,48.0215" id="Fill-13" fill="#4B87C6"></path>
                <path d="M40.335,48.0215 L40.335,62.6405 C40.335,62.6405 49.777,72.4295 63.602,60.6305 C58.751,53.0895 50.252,48.0625 40.335,48.0215 Z" id="Stroke-15" stroke="#4B87C6" stroke-width="3"></path>
                <path d="M40.2891,62.6406 C40.2891,62.6406 30.7781,72.4996 16.8711,60.4976 C15.1491,63.1406 13.8901,66.0936 13.2021,69.2536 C20.2801,75.8186 29.7531,79.8376 40.1691,79.8376 C50.5861,79.8376 60.0591,75.8186 67.1381,69.2516 C66.4621,66.1466 65.2331,63.2386 63.5561,60.6306 C49.7311,72.4296 40.2891,62.6406 40.2891,62.6406 Z" id="Stroke-17" stroke="#4B87C6" stroke-width="3"></path>
                <path d="M62.5811,38.3125 C62.5811,40.5625 60.7571,42.3865 58.5061,42.3865 C56.2551,42.3865 54.4321,40.5625 54.4321,38.3125 C54.4321,36.0605 56.2551,34.2365 58.5061,34.2365 C60.7571,34.2365 62.5811,36.0605 62.5811,38.3125" id="Fill-19" fill="#FFFFFF"></path>
                <path d="M62.5811,38.3125 C62.5811,40.5625 60.7571,42.3865 58.5061,42.3865 C56.2551,42.3865 54.4321,40.5625 54.4321,38.3125 C54.4321,36.0605 56.2551,34.2365 58.5061,34.2365 C60.7571,34.2365 62.5811,36.0605 62.5811,38.3125 Z" id="Stroke-21" stroke="#4B87C6" stroke-width="3"></path>
                <path d="M25.1475,38.3125 C25.1475,40.5625 23.3235,42.3865 21.0725,42.3865 C18.8215,42.3865 16.9985,40.5625 16.9985,38.3125 C16.9985,36.0605 18.8215,34.2365 21.0725,34.2365 C23.3235,34.2365 25.1475,36.0605 25.1475,38.3125" id="Fill-23" fill="#FFFFFF"></path>
                <path d="M25.1475,38.3125 C25.1475,40.5625 23.3235,42.3865 21.0725,42.3865 C18.8215,42.3865 16.9985,40.5625 16.9985,38.3125 C16.9985,36.0605 18.8215,34.2365 21.0725,34.2365 C23.3235,34.2365 25.1475,36.0605 25.1475,38.3125 Z" id="Stroke-25" stroke="#4B87C6" stroke-width="3"></path>
                <path d="M40.335,62.6406 L40.335,48.0236 C40.335,48.0216 40.232,48.0196 40.192,48.0196 C30.384,48.0196 21.791,53.0016 16.905,60.4976 C30.812,72.4996 40.335,62.6406 40.335,62.6406" id="Fill-27" fill="#4B87C6"></path>
                <path d="M40.335,62.6406 L40.335,48.0236 C40.335,48.0216 40.232,48.0196 40.192,48.0196 C30.384,48.0196 21.791,53.0016 16.905,60.4976 C30.812,72.4996 40.335,62.6406 40.335,62.6406 Z" id="Stroke-29" stroke="#4B87C6" stroke-width="3"></path>
                <path d="M31.375,22.1328 C29.296,28.2868 24.467,30.6308 21.822,31.4898 L21.822,44.4038 C21.822,54.4338 29.974,62.6408 40.004,62.6408 C50.034,62.6408 58.186,54.4338 58.186,44.4038 L58.186,29.7758 C42.979,33.8628 31.375,22.1328 31.375,22.1328" id="Fill-31" fill="#FFFFFF"></path>
                <path d="M31.375,22.1328 C29.296,28.2868 24.467,30.6308 21.822,31.4898 L21.822,44.4038 C21.822,54.4338 29.974,62.6408 40.004,62.6408 C50.034,62.6408 58.186,54.4338 58.186,44.4038 L58.186,29.7758 C42.979,33.8628 31.375,22.1328 31.375,22.1328 Z" id="Stroke-33" stroke="#4B87C6" stroke-width="3"></path>
                <path d="M55.8096,39.5098 C55.8096,43.4488 52.6166,46.6408 48.6786,46.6408 C44.7406,46.6408 41.5476,43.4488 41.5476,39.5098 C41.5476,35.5718 44.7406,32.3788 48.6786,32.3788 C52.6166,32.3788 55.8096,35.5718 55.8096,39.5098 Z" id="Stroke-35" stroke="#4B87C6" stroke-width="3"></path>
                <path d="M24.5293,39.5098 C24.5293,43.4488 27.7223,46.6408 31.6603,46.6408 C35.5983,46.6408 38.7913,43.4488 38.7913,39.5098 C38.7913,35.5718 35.5983,32.3788 31.6603,32.3788 C27.7223,32.3788 24.5293,35.5718 24.5293,39.5098 Z" id="Stroke-37" stroke="#4B87C6" stroke-width="3"></path>
                <path d="M38.791,39.5098 L41.547,39.5098" id="Stroke-39" stroke="#4B87C6" stroke-width="3"></path>
                <path d="M51.1235,55.4668 C51.4145,52.7328 49.9495,50.1958 47.5005,48.9898 C46.3535,48.4258 45.6325,50.2758 46.7695,50.8348 C48.4225,51.6478 49.3455,53.4438 49.1525,55.2528 C49.0165,56.5218 50.9875,56.7378 51.1235,55.4668" id="Fill-41" fill="#4B87C6"></path>
                <path d="M36.6533,54.376 C38.9413,55.902 41.8683,55.78 44.0713,54.17 C45.1033,53.415 43.7993,51.918 42.7753,52.667 C41.2893,53.754 39.2703,53.739 37.7573,52.73 C36.6953,52.021 35.5903,53.666 36.6533,54.376" id="Fill-43" fill="#4B87C6"></path>
                <path d="M28.5483,55.4668 C28.2573,52.7328 29.7223,50.1958 32.1713,48.9898 C33.3183,48.4258 34.0393,50.2758 32.9023,50.8348 C31.2493,51.6478 30.3263,53.4438 30.5193,55.2528 C30.6553,56.5218 28.6843,56.7378 28.5483,55.4668" id="Fill-45" fill="#4B87C6"></path>
                <path d="M42.1694,72.2793 C42.1694,73.2933 41.3484,74.1133 40.3354,74.1133 C39.3214,74.1133 38.5004,73.2933 38.5004,72.2793 C38.5004,71.2653 39.3214,70.4453 40.3354,70.4453 C41.3484,70.4453 42.1694,71.2653 42.1694,72.2793" id="Fill-47" fill="#4B87C6"></path>
                <path d="M40.0039,11.0469 C29.9739,11.0469 21.8219,19.2539 21.8219,29.2829 L21.8219,31.4899 C23.4579,30.9589 25.9279,29.8569 28.0669,27.6399 C29.2009,28.8239 30.7949,29.5669 32.5639,29.5669 C34.7319,29.5669 36.6389,28.4569 37.7539,26.7769 C42.6069,29.5049 49.8519,32.0159 58.1859,29.7759 L58.1859,29.2829 C58.1859,19.2539 50.0339,11.0469 40.0039,11.0469" id="Fill-49" fill="#FFFFFF"></path>
                <path d="M40.0039,11.0469 C29.9739,11.0469 21.8219,19.2539 21.8219,29.2829 L21.8219,31.4899 C23.4579,30.9589 25.9279,29.8569 28.0669,27.6399 C29.2009,28.8239 30.7949,29.5669 32.5639,29.5669 C34.7319,29.5669 36.6389,28.4569 37.7539,26.7769 C42.6069,29.5049 49.8519,32.0159 58.1859,29.7759 L58.1859,29.2829 C58.1859,19.2539 50.0339,11.0469 40.0039,11.0469 Z" id="Stroke-51" stroke="#4B87C6" stroke-width="3"></path>
            </g>
        </g>
    </g>
</svg>