<?xml version="1.0" encoding="UTF-8"?>
<svg width="59px" height="850px" viewBox="0 0 59 850" version="1.1" xmlns="http://www.w3.org/2000/svg" xmlns:xlink="http://www.w3.org/1999/xlink">
    <!-- Generator: Sketch 43.2 (39069) - http://www.bohemiancoding.com/sketch -->
    <title>left</title>
    <desc>Created with Sketch.</desc>
    <defs></defs>
    <g id="website" stroke="none" stroke-width="1" fill="none" fill-rule="evenodd">
        <g id="01-start-page" transform="translate(-1221.000000, 0.000000)">
            <g id="left" transform="translate(1221.000000, 0.000000)">
                <rect id="Rectangle-4-Copy" fill="#4990E2" x="49" y="0" width="10" height="120"></rect>
                <rect id="Rectangle-4-Copy-3" fill="#FBF9F4" x="49" y="830" width="10" height="20"></rect>
                <g id="Group-Copy-2" transform="translate(37.500000, 803.000000) scale(-1, 1) translate(-37.500000, -803.000000) translate(16.000000, 793.000000)" font-size="18" font-family="PingFangTC-Regular, PingFang TC" line-spacing="20" fill="#4990E2" font-weight="normal">
                    <text id="&gt;">
                        <tspan x="0" y="19">&gt;</tspan>
                    </text>
                    <text id="&gt;-copy">
                        <tspan x="15" y="19">&gt;</tspan>
                    </text>
                    <text id="&gt;-copy-2">
                        <tspan x="32" y="19">&gt;</tspan>
                    </text>
                </g>
                <path d="M8,399 C8,400.104 7.104,401 6,401 C4.896,401 4,400.104 4,399 C4,397.896 4.896,397 6,397 C7.104,397 8,397.896 8,399" id="Fill-1" fill="#4990E2"></path>
                <path d="M8,408 C8,409.104 7.104,410 6,410 C4.896,410 4,409.104 4,408 C4,406.896 4.896,406 6,406 C7.104,406 8,406.896 8,408" id="Fill-3" fill="#4990E2"></path>
                <path d="M8,417 C8,418.104 7.104,419 6,419 C4.896,419 4,418.104 4,417 C4,415.896 4.896,415 6,415 C7.104,415 8,415.896 8,417" id="Fill-5" fill="#4990E2"></path>
                <path d="M8,426 C8,427.104 7.104,428 6,428 C4.896,428 4,427.104 4,426 C4,424.896 4.896,424 6,424 C7.104,424 8,424.896 8,426" id="Fill-7" fill="#4990E2"></path>
                <path d="M8,435 C8,436.104 7.104,437 6,437 C4.896,437 4,436.104 4,435 C4,433.896 4.896,433 6,433 C7.104,433 8,433.896 8,435" id="Fill-9" fill="#4990E2"></path>
                <path d="M6,633 C6,634.104 5.104,635 4,635 C2.896,635 2,634.104 2,633 C2,631.896 2.896,631 4,631 C5.104,631 6,631.896 6,633" id="Fill-11" fill="#4990E2"></path>
                <path d="M6,642 C6,643.104 5.104,644 4,644 C2.896,644 2,643.104 2,642 C2,640.896 2.896,640 4,640 C5.104,640 6,640.896 6,642" id="Fill-13" fill="#4990E2"></path>
                <path d="M6,651 C6,652.104 5.104,653 4,653 C2.896,653 2,652.104 2,651 C2,649.896 2.896,649 4,649 C5.104,649 6,649.896 6,651" id="Fill-15" fill="#4990E2"></path>
                <path d="M6,660 C6,661.104 5.104,662 4,662 C2.896,662 2,661.104 2,660 C2,658.896 2.896,658 4,658 C5.104,658 6,658.896 6,660" id="Fill-17" fill="#4990E2"></path>
                <path d="M16,399 C16,400.104 15.104,401 14,401 C12.896,401 12,400.104 12,399 C12,397.896 12.896,397 14,397 C15.104,397 16,397.896 16,399" id="Fill-23" fill="#4990E2"></path>
                <path d="M16,408 C16,409.104 15.104,410 14,410 C12.896,410 12,409.104 12,408 C12,406.896 12.896,406 14,406 C15.104,406 16,406.896 16,408" id="Fill-25" fill="#4990E2"></path>
                <path d="M16,417 C16,418.104 15.104,419 14,419 C12.896,419 12,418.104 12,417 C12,415.896 12.896,415 14,415 C15.104,415 16,415.896 16,417" id="Fill-27" fill="#4990E2"></path>
                <path d="M16,426 C16,427.104 15.104,428 14,428 C12.896,428 12,427.104 12,426 C12,424.896 12.896,424 14,424 C15.104,424 16,424.896 16,426" id="Fill-29" fill="#4990E2"></path>
                <path d="M16,435 C16,436.104 15.104,437 14,437 C12.896,437 12,436.104 12,435 C12,433.896 12.896,433 14,433 C15.104,433 16,433.896 16,435" id="Fill-31" fill="#4990E2"></path>
                <path d="M14,633 C14,634.104 13.104,635 12,635 C10.896,635 10,634.104 10,633 C10,631.896 10.896,631 12,631 C13.104,631 14,631.896 14,633" id="Fill-33" fill="#4990E2"></path>
                <path d="M14,642 C14,643.104 13.104,644 12,644 C10.896,644 10,643.104 10,642 C10,640.896 10.896,640 12,640 C13.104,640 14,640.896 14,642" id="Fill-35" fill="#4990E2"></path>
                <path d="M14,651 C14,652.104 13.104,653 12,653 C10.896,653 10,652.104 10,651 C10,649.896 10.896,649 12,649 C13.104,649 14,649.896 14,651" id="Fill-37" fill="#4990E2"></path>
                <path d="M14,660 C14,661.104 13.104,662 12,662 C10.896,662 10,661.104 10,660 C10,658.896 10.896,658 12,658 C13.104,658 14,658.896 14,660" id="Fill-39" fill="#4990E2"></path>
                <path d="M24,399 C24,400.104 23.104,401 22,401 C20.896,401 20,400.104 20,399 C20,397.896 20.896,397 22,397 C23.104,397 24,397.896 24,399" id="Fill-45" fill="#4990E2"></path>
                <path d="M24,408 C24,409.104 23.104,410 22,410 C20.896,410 20,409.104 20,408 C20,406.896 20.896,406 22,406 C23.104,406 24,406.896 24,408" id="Fill-47" fill="#4990E2"></path>
                <path d="M24,417 C24,418.104 23.104,419 22,419 C20.896,419 20,418.104 20,417 C20,415.896 20.896,415 22,415 C23.104,415 24,415.896 24,417" id="Fill-49" fill="#4990E2"></path>
                <path d="M24,426 C24,427.104 23.104,428 22,428 C20.896,428 20,427.104 20,426 C20,424.896 20.896,424 22,424 C23.104,424 24,424.896 24,426" id="Fill-51" fill="#4990E2"></path>
                <path d="M24,435 C24,436.104 23.104,437 22,437 C20.896,437 20,436.104 20,435 C20,433.896 20.896,433 22,433 C23.104,433 24,433.896 24,435" id="Fill-53" fill="#4990E2"></path>
                <path d="M22,633 C22,634.104 21.104,635 20,635 C18.896,635 18,634.104 18,633 C18,631.896 18.896,631 20,631 C21.104,631 22,631.896 22,633" id="Fill-55" fill="#4990E2"></path>
                <path d="M22,642 C22,643.104 21.104,644 20,644 C18.896,644 18,643.104 18,642 C18,640.896 18.896,640 20,640 C21.104,640 22,640.896 22,642" id="Fill-57" fill="#4990E2"></path>
                <path d="M22,651 C22,652.104 21.104,653 20,653 C18.896,653 18,652.104 18,651 C18,649.896 18.896,649 20,649 C21.104,649 22,649.896 22,651" id="Fill-59" fill="#4990E2"></path>
                <path d="M22,660 C22,661.104 21.104,662 20,662 C18.896,662 18,661.104 18,660 C18,658.896 18.896,658 20,658 C21.104,658 22,658.896 22,660" id="Fill-61" fill="#4990E2"></path>
                <path d="M32,399 C32,400.104 31.104,401 30,401 C28.896,401 28,400.104 28,399 C28,397.896 28.896,397 30,397 C31.104,397 32,397.896 32,399" id="Fill-67" fill="#4990E2"></path>
                <path d="M32,408 C32,409.104 31.104,410 30,410 C28.896,410 28,409.104 28,408 C28,406.896 28.896,406 30,406 C31.104,406 32,406.896 32,408" id="Fill-69" fill="#4990E2"></path>
                <path d="M32,417 C32,418.104 31.104,419 30,419 C28.896,419 28,418.104 28,417 C28,415.896 28.896,415 30,415 C31.104,415 32,415.896 32,417" id="Fill-71" fill="#4990E2"></path>
                <path d="M32,426 C32,427.104 31.104,428 30,428 C28.896,428 28,427.104 28,426 C28,424.896 28.896,424 30,424 C31.104,424 32,424.896 32,426" id="Fill-73" fill="#4990E2"></path>
                <path d="M32,435 C32,436.104 31.104,437 30,437 C28.896,437 28,436.104 28,435 C28,433.896 28.896,433 30,433 C31.104,433 32,433.896 32,435" id="Fill-75" fill="#4990E2"></path>
                <path d="M30,633 C30,634.104 29.104,635 28,635 C26.896,635 26,634.104 26,633 C26,631.896 26.896,631 28,631 C29.104,631 30,631.896 30,633" id="Fill-77" fill="#4990E2"></path>
                <path d="M30,642 C30,643.104 29.104,644 28,644 C26.896,644 26,643.104 26,642 C26,640.896 26.896,640 28,640 C29.104,640 30,640.896 30,642" id="Fill-79" fill="#4990E2"></path>
                <path d="M30,651 C30,652.104 29.104,653 28,653 C26.896,653 26,652.104 26,651 C26,649.896 26.896,649 28,649 C29.104,649 30,649.896 30,651" id="Fill-81" fill="#4990E2"></path>
                <path d="M30,660 C30,661.104 29.104,662 28,662 C26.896,662 26,661.104 26,660 C26,658.896 26.896,658 28,658 C29.104,658 30,658.896 30,660" id="Fill-83" fill="#4990E2"></path>
                <path d="M40,399 C40,400.104 39.104,401 38,401 C36.896,401 36,400.104 36,399 C36,397.896 36.896,397 38,397 C39.104,397 40,397.896 40,399" id="Fill-89" fill="#4990E2"></path>
                <path d="M40,408 C40,409.104 39.104,410 38,410 C36.896,410 36,409.104 36,408 C36,406.896 36.896,406 38,406 C39.104,406 40,406.896 40,408" id="Fill-91" fill="#4990E2"></path>
                <path d="M40,417 C40,418.104 39.104,419 38,419 C36.896,419 36,418.104 36,417 C36,415.896 36.896,415 38,415 C39.104,415 40,415.896 40,417" id="Fill-93" fill="#4990E2"></path>
                <path d="M40,426 C40,427.104 39.104,428 38,428 C36.896,428 36,427.104 36,426 C36,424.896 36.896,424 38,424 C39.104,424 40,424.896 40,426" id="Fill-95" fill="#4990E2"></path>
                <path d="M40,435 C40,436.104 39.104,437 38,437 C36.896,437 36,436.104 36,435 C36,433.896 36.896,433 38,433 C39.104,433 40,433.896 40,435" id="Fill-97" fill="#4990E2"></path>
                <path d="M48,399 C48,400.104 47.104,401 46,401 C44.896,401 44,400.104 44,399 C44,397.896 44.896,397 46,397 C47.104,397 48,397.896 48,399" id="Fill-111" fill="#4990E2"></path>
                <path d="M48,408 C48,409.104 47.104,410 46,410 C44.896,410 44,409.104 44,408 C44,406.896 44.896,406 46,406 C47.104,406 48,406.896 48,408" id="Fill-113" fill="#4990E2"></path>
                <path d="M48,417 C48,418.104 47.104,419 46,419 C44.896,419 44,418.104 44,417 C44,415.896 44.896,415 46,415 C47.104,415 48,415.896 48,417" id="Fill-115" fill="#4990E2"></path>
                <path d="M48,426 C48,427.104 47.104,428 46,428 C44.896,428 44,427.104 44,426 C44,424.896 44.896,424 46,424 C47.104,424 48,424.896 48,426" id="Fill-117" fill="#4990E2"></path>
                <path d="M48,435 C48,436.104 47.104,437 46,437 C44.896,437 44,436.104 44,435 C44,433.896 44.896,433 46,433 C47.104,433 48,433.896 48,435" id="Fill-119" fill="#4990E2"></path>
                <path d="M55,399 C55,400.104 54.104,401 53,401 C51.896,401 51,400.104 51,399 C51,397.896 51.896,397 53,397 C54.104,397 55,397.896 55,399" id="Fill-133" fill="#4990E2"></path>
                <path d="M55,408 C55,409.104 54.104,410 53,410 C51.896,410 51,409.104 51,408 C51,406.896 51.896,406 53,406 C54.104,406 55,406.896 55,408" id="Fill-135" fill="#4990E2"></path>
                <path d="M55,417 C55,418.104 54.104,419 53,419 C51.896,419 51,418.104 51,417 C51,415.896 51.896,415 53,415 C54.104,415 55,415.896 55,417" id="Fill-137" fill="#4990E2"></path>
                <path d="M55,426 C55,427.104 54.104,428 53,428 C51.896,428 51,427.104 51,426 C51,424.896 51.896,424 53,424 C54.104,424 55,424.896 55,426" id="Fill-139" fill="#4990E2"></path>
                <path d="M55,435 C55,436.104 54.104,437 53,437 C51.896,437 51,436.104 51,435 C51,433.896 51.896,433 53,433 C54.104,433 55,433.896 55,435" id="Fill-141" fill="#4990E2"></path>
                <g id="Group-Copy" transform="translate(27.500000, 219.000000) scale(1, -1) translate(-27.500000, -219.000000) translate(6.000000, 209.000000)" font-size="18" font-family="PingFangTC-Regular, PingFang TC" line-spacing="20" fill="#4990E2" font-weight="normal">
                    <text id="&gt;">
                        <tspan x="0" y="19">&gt;</tspan>
                    </text>
                    <text id="&gt;-copy">
                        <tspan x="15" y="19">&gt;</tspan>
                    </text>
                    <text id="&gt;-copy-2">
                        <tspan x="32" y="19">&gt;</tspan>
                    </text>
                </g>
                <g id="Page-1-Copy-2" transform="translate(0.000000, 373.000000)" fill="#4990E2">
                    <polygon id="Fill-1" points="0 6.63628472 12.7817565 6.63628472 12.7817565 5.4296875 0 5.4296875"></polygon>
                    <polygon id="Fill-2" points="5.75217391 12.0659722 7.02958261 12.0659722 7.02958261 0 5.75217391 0"></polygon>
                </g>
                <g id="Page-1-Copy-31" transform="translate(0.000000, 607.000000)" fill="#4990E2">
                    <polygon id="Fill-1" points="0 6.63628472 12.7817565 6.63628472 12.7817565 5.4296875 0 5.4296875"></polygon>
                    <polygon id="Fill-2" points="5.75217391 12.0659722 7.02958261 12.0659722 7.02958261 0 5.75217391 0"></polygon>
                </g>
                <g id="Page-1-Copy-11" transform="translate(0.000000, 535.000000)" fill="#4990E2">
                    <polygon id="Fill-1" points="0 6.63628472 12.7817565 6.63628472 12.7817565 5.4296875 0 5.4296875"></polygon>
                    <polygon id="Fill-2" points="5.75217391 12.0659722 7.02958261 12.0659722 7.02958261 0 5.75217391 0"></polygon>
                </g>
                <g id="Page-1-Copy-18" transform="translate(0.000000, 331.000000)" fill="#4990E2">
                    <polygon id="Fill-1" points="0 6.63628472 12.7817565 6.63628472 12.7817565 5.4296875 0 5.4296875"></polygon>
                    <polygon id="Fill-2" points="5.75217391 12.0659722 7.02958261 12.0659722 7.02958261 0 5.75217391 0"></polygon>
                </g>
                <g id="Page-1-Copy-9" transform="translate(0.000000, 352.000000)" fill="#4990E2">
                    <polygon id="Fill-1" points="0 6.63628472 12.7817565 6.63628472 12.7817565 5.4296875 0 5.4296875"></polygon>
                    <polygon id="Fill-2" points="5.75217391 12.0659722 7.02958261 12.0659722 7.02958261 0 5.75217391 0"></polygon>
                </g>
                <g id="Page-1-Copy-32" transform="translate(0.000000, 586.000000)" fill="#4990E2">
                    <polygon id="Fill-1" points="0 6.63628472 12.7817565 6.63628472 12.7817565 5.4296875 0 5.4296875"></polygon>
                    <polygon id="Fill-2" points="5.75217391 12.0659722 7.02958261 12.0659722 7.02958261 0 5.75217391 0"></polygon>
                </g>
                <g id="Page-1-Copy-19" transform="translate(0.000000, 310.000000)" fill="#4990E2">
                    <polygon id="Fill-1" points="0 6.63628472 12.7817565 6.63628472 12.7817565 5.4296875 0 5.4296875"></polygon>
                    <polygon id="Fill-2" points="5.75217391 12.0659722 7.02958261 12.0659722 7.02958261 0 5.75217391 0"></polygon>
                </g>
                <g id="Page-1-Copy-3" transform="translate(21.000000, 373.000000)" fill="#4990E2">
                    <polygon id="Fill-1" points="0 6.63628472 12.7817565 6.63628472 12.7817565 5.4296875 0 5.4296875"></polygon>
                    <polygon id="Fill-2" points="5.75217391 12.0659722 7.02958261 12.0659722 7.02958261 0 5.75217391 0"></polygon>
                </g>
                <g id="Page-1-Copy-38" transform="translate(21.000000, 63.000000)" fill="#4990E2">
                    <polygon id="Fill-1" points="0 6.63628472 12.7817565 6.63628472 12.7817565 5.4296875 0 5.4296875"></polygon>
                    <polygon id="Fill-2" points="5.75217391 12.0659722 7.02958261 12.0659722 7.02958261 0 5.75217391 0"></polygon>
                </g>
                <g id="Page-1-Copy-33" transform="translate(21.000000, 607.000000)" fill="#4990E2">
                    <polygon id="Fill-1" points="0 6.63628472 12.7817565 6.63628472 12.7817565 5.4296875 0 5.4296875"></polygon>
                    <polygon id="Fill-2" points="5.75217391 12.0659722 7.02958261 12.0659722 7.02958261 0 5.75217391 0"></polygon>
                </g>
                <g id="Page-1-Copy-15" transform="translate(21.000000, 535.000000)" fill="#4990E2">
                    <polygon id="Fill-1" points="0 6.63628472 12.7817565 6.63628472 12.7817565 5.4296875 0 5.4296875"></polygon>
                    <polygon id="Fill-2" points="5.75217391 12.0659722 7.02958261 12.0659722 7.02958261 0 5.75217391 0"></polygon>
                </g>
                <g id="Page-1-Copy-20" transform="translate(21.000000, 331.000000)" fill="#4990E2">
                    <polygon id="Fill-1" points="0 6.63628472 12.7817565 6.63628472 12.7817565 5.4296875 0 5.4296875"></polygon>
                    <polygon id="Fill-2" points="5.75217391 12.0659722 7.02958261 12.0659722 7.02958261 0 5.75217391 0"></polygon>
                </g>
                <g id="Page-1-Copy-13" transform="translate(21.000000, 352.000000)" fill="#4990E2">
                    <polygon id="Fill-1" points="0 6.63628472 12.7817565 6.63628472 12.7817565 5.4296875 0 5.4296875"></polygon>
                    <polygon id="Fill-2" points="5.75217391 12.0659722 7.02958261 12.0659722 7.02958261 0 5.75217391 0"></polygon>
                </g>
                <g id="Page-1-Copy-34" transform="translate(21.000000, 586.000000)" fill="#4990E2">
                    <polygon id="Fill-1" points="0 6.63628472 12.7817565 6.63628472 12.7817565 5.4296875 0 5.4296875"></polygon>
                    <polygon id="Fill-2" points="5.75217391 12.0659722 7.02958261 12.0659722 7.02958261 0 5.75217391 0"></polygon>
                </g>
                <g id="Page-1-Copy-21" transform="translate(21.000000, 310.000000)" fill="#4990E2">
                    <polygon id="Fill-1" points="0 6.63628472 12.7817565 6.63628472 12.7817565 5.4296875 0 5.4296875"></polygon>
                    <polygon id="Fill-2" points="5.75217391 12.0659722 7.02958261 12.0659722 7.02958261 0 5.75217391 0"></polygon>
                </g>
                <g id="Page-1-Copy-8" transform="translate(43.000000, 373.000000)" fill="#4990E2">
                    <polygon id="Fill-1" points="0 6.63628472 12.7817565 6.63628472 12.7817565 5.4296875 0 5.4296875"></polygon>
                    <polygon id="Fill-2" points="5.75217391 12.0659722 7.02958261 12.0659722 7.02958261 0 5.75217391 0"></polygon>
                </g>
                <g id="Page-1-Copy-37" transform="translate(43.000000, 490.000000)" fill="#4990E2">
                    <polygon id="Fill-1" points="0 6.63628472 12.7817565 6.63628472 12.7817565 5.4296875 0 5.4296875"></polygon>
                    <polygon id="Fill-2" points="5.75217391 12.0659722 7.02958261 12.0659722 7.02958261 0 5.75217391 0"></polygon>
                </g>
                <g id="Page-1-Copy-61" transform="translate(43.000000, 267.000000)" fill="#4990E2">
                    <polygon id="Fill-1" points="0 6.63628472 12.7817565 6.63628472 12.7817565 5.4296875 0 5.4296875"></polygon>
                    <polygon id="Fill-2" points="5.75217391 12.0659722 7.02958261 12.0659722 7.02958261 0 5.75217391 0"></polygon>
                </g>
                <g id="Page-1-Copy-22" transform="translate(43.000000, 331.000000)" fill="#4990E2">
                    <polygon id="Fill-1" points="0 6.63628472 12.7817565 6.63628472 12.7817565 5.4296875 0 5.4296875"></polygon>
                    <polygon id="Fill-2" points="5.75217391 12.0659722 7.02958261 12.0659722 7.02958261 0 5.75217391 0"></polygon>
                </g>
                <g id="Page-1-Copy-14" transform="translate(43.000000, 352.000000)" fill="#4990E2">
                    <polygon id="Fill-1" points="0 6.63628472 12.7817565 6.63628472 12.7817565 5.4296875 0 5.4296875"></polygon>
                    <polygon id="Fill-2" points="5.75217391 12.0659722 7.02958261 12.0659722 7.02958261 0 5.75217391 0"></polygon>
                </g>
                <g id="Page-1-Copy-24" transform="translate(43.000000, 310.000000)" fill="#4990E2">
                    <polygon id="Fill-1" points="0 6.63628472 12.7817565 6.63628472 12.7817565 5.4296875 0 5.4296875"></polygon>
                    <polygon id="Fill-2" points="5.75217391 12.0659722 7.02958261 12.0659722 7.02958261 0 5.75217391 0"></polygon>
                </g>
                <g id="Group-16" transform="translate(14.000000, 715.000000)">
                    <circle id="Oval-Copy-2" stroke="#4990E2" stroke-width="2" cx="22.5" cy="22.5" r="21.5"></circle>
                    <path d="M22.0523077,13.8495055 L22.0523077,12 L23.1800549,12 L23.1800549,13.8495055 C24.4882418,13.9397253 25.5708791,14.3231593 26.3828571,14.9998077 C27.2850549,15.7666758 27.8489286,16.939533 28.074478,18.5183791 L26.2700824,18.5183791 C26.1121978,17.4357418 25.7062088,16.6463187 25.0746703,16.1275549 C24.5784615,15.7215659 23.9469231,15.4960165 23.1800549,15.4057967 L23.1800549,21.3151923 C24.5333516,21.8114011 25.4581044,22.1497253 25.9543132,22.3527198 C27.5331593,23.1872527 28.3451374,24.3826648 28.3451374,25.961511 C28.3451374,27.5403571 27.7812637,28.7357692 26.6760714,29.5251923 C25.7738736,30.1341758 24.6235714,30.4725 23.1800549,30.5401648 L23.1800549,32.525 L22.0523077,32.525 L22.0523077,30.5401648 C20.5411264,30.4499451 19.3908242,29.9762912 18.5788462,29.1417582 C17.6766484,28.2395604 17.1578846,26.9088187 17,25.1044231 L18.8269505,25.1044231 C18.9622802,26.4577198 19.3231593,27.4275824 19.9095879,28.0365659 C20.4057967,28.5553297 21.1275549,28.8710989 22.0523077,28.9613187 L22.0523077,22.7135989 C21.2403297,22.3978297 20.4509066,22.1046154 19.6614835,21.833956 C18.0375275,21.021978 17.2481044,19.8265659 17.2481044,18.2477198 C17.2481044,16.7816484 17.7668681,15.6539011 18.8495055,14.887033 C19.6840385,14.2554945 20.7441209,13.8946154 22.0523077,13.8495055 Z M23.1800549,23.1195879 L23.1800549,28.9613187 C24.1273626,28.8936538 24.9167857,28.6455495 25.5032143,28.1944505 C26.1573077,27.6756868 26.4956319,26.9539286 26.4956319,26.0066209 C26.4956319,24.9014286 25.6836538,24.0443407 24.1048077,23.4353571 C23.7890385,23.3225824 23.4732692,23.2098077 23.1800549,23.1195879 Z M22.0523077,20.9092033 L22.0523077,15.4057967 C21.2403297,15.4509066 20.5862363,15.676456 20.1125824,16.0373352 C19.4359341,16.510989 19.0976099,17.2553022 19.0976099,18.2477198 C19.0976099,19.2626923 19.887033,20.0746703 21.4884341,20.7062088 L22.0523077,20.9092033 Z" id="$" fill="#4990E2"></path>
                </g>
            </g>
        </g>
    </g>
</svg>