<?xml version="1.0" encoding="UTF-8" standalone="no"?>
<svg width="466px" height="125px" viewBox="0 0 466 125" version="1.1" xmlns="http://www.w3.org/2000/svg" xmlns:xlink="http://www.w3.org/1999/xlink">
    <!-- Generator: Sketch 43.1 (39012) - http://www.bohemiancoding.com/sketch -->
    <title>Page 1</title>
    <desc>Created with Sketch.</desc>
    <defs></defs>
    <g id="website" stroke="none" stroke-width="1" fill="none" fill-rule="evenodd">
        <g id="02-step-page" transform="translate(-408.000000, -524.000000)">
            <g id="taxA-title" transform="translate(410.000000, 526.000000)">
                <g id="Page-1">
                    <polygon id="Fill-1" fill="#FFFFFF" points="0.5075 120.367 0.8645 0.5 460.5075 0.634 460.1505 120.5"></polygon>
                    <polygon id="Stroke-2" stroke="#4A90E2" stroke-width="5" points="0.5075 120.367 0.8645 0.5 460.5075 0.634 460.1505 120.5"></polygon>
                    <polygon id="Fill-4" fill="#4A90E2" points="293.382 99.1049 293.382 102.4089 32.154 102.4079 32.154 99.1049"></polygon>
                    <polygon id="Fill-5" fill="#4A90E2" points="293.382 105.712 293.382 109.015 32.154 109.015 32.154 105.712"></polygon>
                    <path d="M20.264,105.698 L26.296,105.698 L26.296,99.161 L20.264,99.161 L20.264,105.698 Z M17.216,109.001 L29.344,109.001 L29.344,95.857 L17.216,95.857 L17.216,109.001 Z" id="Fill-6" fill="#4A90E2"></path>
                    <polygon id="Fill-7" fill="#4A90E2" points="29.343 99.161 35.206 99.161 35.206 95.857 29.343 95.857"></polygon>
                    <polygon id="Fill-8" fill="#4A90E2" points="32.158 109.002 50.189 109.002 50.189 105.698 32.158 105.698"></polygon>
                    <polygon id="Fill-9" fill="#4A90E2" points="32.158 102.43 50.189 102.43 50.189 99.126 32.158 99.126"></polygon>
                    <polygon id="Fill-10" fill="#4A90E2" points="32.158 108.932 35.206 108.932 35.206 95.858 32.158 95.858"></polygon>
                    <polygon id="Fill-11" fill="#4A90E2" points="26.296 95.857 29.344 95.857 29.344 89.503 26.296 89.503"></polygon>
                    <polygon id="Fill-12" fill="#4A90E2" points="17.216 92.807 20.264 92.807 20.264 54.037 17.216 54.037"></polygon>
                    <polygon id="Fill-13" fill="#4A90E2" points="23.312 92.807 26.36 92.807 26.36 54.037 23.312 54.037"></polygon>
                    <polygon id="Fill-14" fill="#4A90E2" points="17.28 92.806 29.344 92.806 29.344 89.503 17.28 89.503"></polygon>
                    <path d="M20.264,23.617 L26.296,23.617 L26.296,17.08 L20.264,17.08 L20.264,23.617 Z M17.216,26.921 L29.344,26.921 L29.344,13.777 L17.216,13.777 L17.216,26.921 Z" id="Fill-15" fill="#4A90E2"></path>
                    <polygon id="Fill-16" fill="#4A90E2" points="26.296 33.274 29.344 33.274 29.344 26.92 26.296 26.92"></polygon>
                    <polygon id="Fill-17" fill="#4A90E2" points="17.216 49.513 20.264 49.513 20.264 29.971 17.216 29.971"></polygon>
                    <polygon id="Fill-18" fill="#4A90E2" points="23.28 49.513 26.328 49.513 26.328 29.971 23.28 29.971"></polygon>
                    <polygon id="Fill-19" fill="#4A90E2" points="17.28 33.274 29.344 33.274 29.344 29.971 17.28 29.971"></polygon>
                    <polygon id="Fill-20" fill="#4A90E2" points="29.343 26.921 35.206 26.921 35.206 23.617 29.343 23.617"></polygon>
                    <polygon id="Fill-21" fill="#4A90E2" points="32.158 17.08 50.189 17.08 50.189 13.776 32.158 13.776"></polygon>
                    <polygon id="Fill-22" fill="#4A90E2" points="32.158 23.687 50.189 23.687 50.189 20.384 32.158 20.384"></polygon>
                    <polygon id="Fill-23" fill="#4A90E2" points="32.158 26.92 35.206 26.92 35.206 13.846 32.158 13.846"></polygon>
                    <path d="M434.725,23.617 L440.757,23.617 L440.757,17.08 L434.725,17.08 L434.725,23.617 Z M431.677,26.92 L443.805,26.92 L443.805,13.776 L431.677,13.776 L431.677,26.92 Z" id="Fill-24" fill="#4A90E2"></path>
                    <polygon id="Fill-25" fill="#4A90E2" points="425.814 26.921 431.677 26.921 431.677 23.617 425.814 23.617"></polygon>
                    <polygon id="Fill-26" fill="#4A90E2" points="281.131 17.08 428.862 17.08 428.862 13.776 281.131 13.776"></polygon>
                    <polygon id="Fill-27" fill="#4A90E2" points="281.131 23.652 428.862 23.652 428.862 20.348 281.131 20.348"></polygon>
                    <polygon id="Fill-28" fill="#4A90E2" points="425.814 26.92 428.862 26.92 428.862 13.846 425.814 13.846"></polygon>
                    <polygon id="Fill-29" fill="#4A90E2" points="431.677 33.274 434.725 33.274 434.725 26.92 431.677 26.92"></polygon>
                    <polygon id="Fill-30" fill="#4A90E2" points="440.757 49.513 443.805 49.513 443.805 29.971 440.757 29.971"></polygon>
                    <polygon id="Fill-31" fill="#4A90E2" points="434.66 49.513 437.708 49.513 437.708 29.971 434.66 29.971"></polygon>
                    <polygon id="Fill-32" fill="#4A90E2" points="431.676 33.274 443.74 33.274 443.74 29.971 431.676 29.971"></polygon>
                    <path d="M434.725,105.698 L440.757,105.698 L440.757,99.161 L434.725,99.161 L434.725,105.698 Z M431.677,109.001 L443.805,109.001 L443.805,95.857 L431.677,95.857 L431.677,109.001 Z" id="Fill-33" fill="#4A90E2"></path>
                    <polygon id="Fill-34" fill="#4A90E2" points="431.677 95.857 434.725 95.857 434.725 89.503 431.677 89.503"></polygon>
                    <polygon id="Fill-35" fill="#4A90E2" points="440.757 92.807 443.805 92.807 443.805 54.037 440.757 54.037"></polygon>
                    <polygon id="Fill-36" fill="#4A90E2" points="434.693 92.807 437.741 92.807 437.741 54.037 434.693 54.037"></polygon>
                    <polygon id="Fill-37" fill="#4A90E2" points="431.676 92.806 443.74 92.806 443.74 89.503 431.676 89.503"></polygon>
                    <polygon id="Fill-38" fill="#4A90E2" points="425.814 99.161 431.677 99.161 431.677 95.857 425.814 95.857"></polygon>
                    <polygon id="Fill-39" fill="#4A90E2" points="281.131 109.002 428.862 109.002 428.862 105.698 281.131 105.698"></polygon>
                    <polygon id="Fill-40" fill="#4A90E2" points="281.131 102.394 428.862 102.394 428.862 99.091 281.131 99.091"></polygon>
                    <polygon id="Fill-41" fill="#4A90E2" points="425.814 108.932 428.862 108.932 428.862 95.858 425.814 95.858"></polygon>
                    <polygon id="Fill-42" fill="#4A90E2" points="293.382 13.7766 293.382 17.0796 32.154 17.0796 32.154 13.7766"></polygon>
                    <polygon id="Fill-43" fill="#4A90E2" points="293.382 20.3836 293.382 23.6876 32.154 23.6866 32.154 20.3836"></polygon>
                    <polygon id="Fill-44" fill="#4A90E2" points="17.21 92.805 20.258 92.805 20.258 31.621 17.21 31.621"></polygon>
                    <polygon id="Fill-45" fill="#4A90E2" points="23.307 92.805 26.355 92.805 26.355 31.621 23.307 31.621"></polygon>
                    <polygon id="Fill-46" fill="#4A90E2" points="434.66 92.805 437.708 92.805 437.708 31.621 434.66 31.621"></polygon>
                    <polygon id="Fill-47" fill="#4A90E2" points="440.757 92.805 443.805 92.805 443.805 31.621 440.757 31.621"></polygon>
                </g>
            </g>
        </g>
    </g>
</svg>