<?xml version="1.0" encoding="UTF-8" standalone="no"?>
<svg width="29px" height="10px" viewBox="0 0 29 10" version="1.1" xmlns="http://www.w3.org/2000/svg" xmlns:xlink="http://www.w3.org/1999/xlink">
    <!-- Generator: Sketch 43.1 (39012) - http://www.bohemiancoding.com/sketch -->
    <title>Combined Shape</title>
    <desc>Created with Sketch.</desc>
    <defs></defs>
    <g id="website" stroke="none" stroke-width="1" fill="none" fill-rule="evenodd">
        <path d="M29,9.58936815 C28.8348852,9.59650445 28.6663651,9.60015851 28.4943094,9.60015851 C24.405221,9.60015851 22.3140055,7.53625289 20.4685635,5.71470631 C18.7592818,4.02675694 17.2820718,2.56917712 14.248011,2.56917712 C11.2130939,2.56917712 9.73588398,4.02675694 8.02574586,5.71470631 C6.18116022,7.53625289 4.0890884,9.60015851 0,9.60015851 L0,7.03098139 C3.03491713,7.03098139 4.51127072,5.57340157 6.22140884,3.8854522 C8.06685083,2.06390562 10.1589227,0 14.248011,0 C18.3362431,0 20.4283149,2.06390562 22.2737569,3.8854522 C23.9830387,5.57340157 25.4602486,7.03098139 28.4943094,7.03098139 C28.6678549,7.03098139 28.8363069,7.02621526 29,7.01691248 L29,9.58936815 Z" id="Combined-Shape" fill="#4A90E2"></path>
    </g>
</svg>