<?xml version="1.0" encoding="UTF-8" standalone="no"?>
<svg width="304px" height="21px" viewBox="0 0 304 21" version="1.1" xmlns="http://www.w3.org/2000/svg" xmlns:xlink="http://www.w3.org/1999/xlink">
    <!-- Generator: Sketch 43.1 (39012) - http://www.bohemiancoding.com/sketch -->
    <title>Group 8</title>
    <desc>Created with Sketch.</desc>
    <defs>
        <polygon id="path-1" points="21.9810698 0.33463075 21.9810698 19.8123827 0 19.8123827 0 0.33463075 21.9810698 0.33463075"></polygon>
    </defs>
    <g id="website" stroke="none" stroke-width="1" fill="none" fill-rule="evenodd">
        <g id="01-start-page" transform="translate(-488.000000, -799.000000)">
            <g id="Group-8" transform="translate(488.000000, 799.000000)">
                <path d="M13.37,6.06 L9.13,6.06 L9.13,4.32 L14.41,4.32 L14.41,0.72 L16.25,0.72 L16.25,4.32 L18.51,4.32 L18.51,6.06 L16.25,6.06 L16.25,16.74 C16.25,18.16 15.55,18.88 14.17,18.88 L11.85,18.88 L11.47,17.12 C12.19,17.2 12.89,17.24 13.55,17.24 C14.11,17.24 14.41,16.92 14.41,16.28 L14.41,7.36 C13.29,10.94 11.55,13.92 9.23,16.3 L8.19,14.58 C10.57,12.38 12.29,9.54 13.37,6.06 Z M1.21,1.28 L8.31,1.28 L8.31,13.76 L1.21,13.76 L1.21,1.28 Z M6.47,12.08 L6.47,10.04 L3.05,10.04 L3.05,12.08 L6.47,12.08 Z M3.05,8.48 L6.47,8.48 L6.47,6.54 L3.05,6.54 L3.05,8.48 Z M3.05,4.96 L6.47,4.96 L6.47,2.96 L3.05,2.96 L3.05,4.96 Z M6.81,14.18 C7.73,15.46 8.45,16.56 8.95,17.52 L7.53,18.54 C7.01,17.48 6.29,16.32 5.41,15.04 L6.81,14.18 Z M2.61,14.38 C2.05,15.58 1.31,16.78 0.39,18.02 L1.97,18.84 C2.85,17.62 3.59,16.38 4.15,15.1 L2.61,14.38 Z M20.69,2.26 L29.29,2.26 L29.29,4.12 L26.39,4.12 L26.39,7.96 L28.49,7.96 L28.49,9.18 C29.79,6.78 30.67,3.92 31.15,0.56 L33.01,0.76 C32.85,1.78 32.65,2.76 32.43,3.68 L38.31,3.68 L38.31,5.52 L36.95,5.52 C36.81,8.8 36.03,11.56 34.61,13.8 C35.77,15.4 37.17,16.62 38.79,17.46 L37.71,19.06 C36.05,18.18 34.63,16.94 33.47,15.34 C32.13,16.88 30.43,18.12 28.37,19.08 L27.21,17.52 C29.41,16.58 31.15,15.32 32.43,13.72 C31.65,12.32 31.01,10.76 30.49,9.04 C30.11,9.8 29.69,10.5 29.25,11.18 L28.17,9.76 L26.39,9.76 L26.39,14.4 C27.35,14.12 28.27,13.82 29.15,13.52 L29.15,15.28 C26.69,16.16 23.85,16.96 20.61,17.72 L20.09,15.96 C20.49,15.88 20.89,15.78 21.29,15.7 L21.29,6.56 L23.07,6.56 L23.07,15.28 C23.59,15.16 24.09,15.02 24.57,14.9 L24.57,4.12 L20.69,4.12 L20.69,2.26 Z M33.51,12.06 C34.51,10.2 35.05,8.02 35.13,5.52 L31.91,5.52 C31.59,6.48 31.25,7.42 30.85,8.3 L31.79,7.76 C32.25,9.36 32.83,10.8 33.51,12.06 Z M51.19,1.28 L51.19,19.02 L53.03,19.02 L53.03,3.02 L56.07,3.02 C55.41,5.12 54.75,6.92 54.07,8.42 C55.67,10.3 56.47,11.82 56.49,12.98 C56.47,13.66 56.41,14.1 56.29,14.3 C56.15,14.52 55.85,14.64 55.41,14.66 C54.91,14.66 54.31,14.62 53.59,14.54 L54.19,16.54 C55.89,16.54 57.03,16.26 57.59,15.74 C58.11,15.22 58.37,14.3 58.37,12.98 C58.35,11.78 57.59,10.26 56.09,8.42 C56.83,6.66 57.51,4.76 58.15,2.7 L58.15,1.28 L51.19,1.28 Z M40.69,2.42 L44.37,2.42 C44.17,1.84 43.97,1.3 43.77,0.8 L45.71,0.48 C45.89,1.06 46.05,1.7 46.21,2.42 L50.17,2.42 L50.17,4.24 L49.33,4.24 C48.97,5.58 48.55,6.8 48.11,7.88 L50.35,7.88 L50.35,9.7 L40.33,9.7 L40.33,7.88 L42.69,7.88 C42.39,6.6 42.03,5.38 41.63,4.24 L40.69,4.24 L40.69,2.42 Z M46.35,7.88 C46.79,6.72 47.17,5.5 47.51,4.24 L43.45,4.24 C43.79,5.3 44.13,6.52 44.45,7.88 L46.35,7.88 Z M49.53,11.2 L49.53,19.02 L47.65,19.02 L47.65,18.02 L43.25,18.02 L43.25,19.02 L41.39,19.02 L41.39,11.2 L49.53,11.2 Z M43.25,16.22 L47.65,16.22 L47.65,13 L43.25,13 L43.25,16.22 Z M68.39,0.52 L70.35,0.52 L70.35,3.98 L77.47,3.98 L77.47,13.64 L75.57,13.64 L75.57,12.5 L70.35,12.5 L70.35,19.2 L68.39,19.2 L68.39,12.5 L63.19,12.5 L63.19,13.64 L61.29,13.64 L61.29,3.98 L68.39,3.98 L68.39,0.52 Z M63.19,10.64 L68.39,10.64 L68.39,5.84 L63.19,5.84 L63.19,10.64 Z M70.35,10.64 L75.57,10.64 L75.57,5.84 L70.35,5.84 L70.35,10.64 Z M85.79,3.96 L95.05,3.96 L95.05,8.98 L85.79,8.98 L85.79,3.96 Z M93.29,7.3 L93.29,5.64 L87.57,5.64 L87.57,7.3 L93.29,7.3 Z M84.29,10.12 L90.03,10.12 L90.03,15.74 L84.29,15.74 L84.29,10.12 Z M88.35,14.14 L88.35,11.72 L85.97,11.72 L85.97,14.14 L88.35,14.14 Z M91.37,10.12 L97.07,10.12 L97.07,15.74 L91.37,15.74 L91.37,10.12 Z M95.39,14.14 L95.39,11.72 L93.03,11.72 L93.03,14.14 L95.39,14.14 Z M80.47,1.24 L97.77,1.24 L97.77,3.08 L83.21,3.08 L83.21,15.7 C83.21,16.26 83.49,16.56 84.09,16.56 L98.15,16.56 L98.15,18.4 L83.53,18.4 C82.03,18.4 81.29,17.64 81.29,16.16 L81.29,3.08 L80.47,3.08 L80.47,1.24 Z M117.81,1.3 L117.81,19.08 L115.93,19.08 L115.93,18.32 L102.81,18.32 L102.81,19.08 L100.93,19.08 L100.93,1.3 L117.81,1.3 Z M102.81,16.56 L115.93,16.56 L115.93,3.06 L102.81,3.06 L102.81,16.56 Z M103.61,4.9 L109.69,4.9 C109.67,4.4 109.67,3.9 109.67,3.38 L111.37,3.38 C111.37,3.92 111.37,4.42 111.39,4.9 L112.85,4.9 C112.67,4.44 112.47,4.02 112.27,3.62 L113.75,3.38 C113.93,3.82 114.11,4.34 114.29,4.9 L115.29,4.9 L115.29,6.58 L111.43,6.58 C111.47,7.98 111.57,9.14 111.73,10.02 C111.77,10.34 111.81,10.62 111.85,10.9 C112.37,9.82 112.81,8.6 113.17,7.22 L114.57,7.94 C113.97,10.06 113.25,11.8 112.41,13.2 C112.41,13.24 112.43,13.28 112.45,13.3 C112.73,14.02 113.01,14.38 113.25,14.38 C113.53,14.38 113.83,13.58 114.19,11.98 L115.55,12.74 C114.99,14.98 114.27,16.12 113.43,16.12 C112.81,16.12 112.21,15.7 111.65,14.86 C111.57,14.76 111.51,14.66 111.47,14.56 C110.87,15.28 110.25,15.86 109.59,16.32 L108.65,14.92 C109.41,14.4 110.11,13.7 110.73,12.84 C110.53,12.28 110.37,11.64 110.23,10.96 C109.99,9.8 109.83,8.34 109.75,6.58 L103.61,6.58 L103.61,4.9 Z M104.09,7.68 L108.99,7.68 L108.99,11.98 L104.09,11.98 L104.09,7.68 Z M107.45,10.64 L107.45,9.02 L105.63,9.02 L105.63,10.64 L107.45,10.64 Z M109.09,12.76 L109.09,14.22 C107.53,14.58 105.77,14.9 103.81,15.14 L103.57,13.52 C105.67,13.32 107.51,13.08 109.09,12.76 Z M128.43,6.56 L128.05,6.88 L127.11,6.08 L127.11,7.72 L125.05,7.72 L125.05,8.62 C125.95,9.54 126.85,10.58 127.77,11.7 L126.75,13.22 C126.11,12.04 125.53,11.06 125.05,10.3 L125.05,19 L123.23,19 L123.23,10.66 C122.59,12.34 121.77,13.86 120.77,15.24 L119.99,13.28 C121.43,11.64 122.49,9.78 123.15,7.72 L120.63,7.72 L120.63,5.94 L123.23,5.94 L123.23,3.6 C122.49,3.72 121.73,3.84 120.97,3.94 L120.59,2.14 C122.83,1.92 124.83,1.48 126.59,0.84 L127.25,2.6 C126.55,2.84 125.81,3.04 125.05,3.22 L125.05,5.94 L126.95,5.94 L126.67,5.7 C128.23,4.44 129.39,2.78 130.13,0.72 L131.85,1.4 C131.19,3.04 130.39,4.4 129.47,5.5 L135.89,5.5 C134.97,4 133.99,2.64 132.97,1.4 L134.57,0.68 C136.07,2.4 137.39,4.3 138.51,6.38 L136.89,7.2 C136.85,7.14 136.83,7.1 136.81,7.06 L136.81,11.8 L135.03,11.8 L135.03,16.44 C135.03,16.84 135.17,17.04 135.47,17.04 L136.13,17.04 C136.33,17.04 136.49,16.92 136.57,16.68 C136.69,16.4 136.75,15.54 136.79,14.14 L138.49,14.66 C138.37,16.64 138.15,17.82 137.83,18.2 C137.51,18.56 137.07,18.74 136.47,18.74 L134.93,18.74 C133.81,18.74 133.25,18.1 133.25,16.82 L133.25,11.8 L131.85,11.8 C131.59,15.12 130.15,17.56 127.51,19.08 L126.49,17.42 C128.67,16.3 129.89,14.44 130.13,11.8 L128.43,11.8 L128.43,6.56 Z M135.01,10.12 L135.01,7.18 L130.21,7.18 L130.21,10.12 L135.01,10.12 Z M145.83,10.98 L153.25,10.98 L153.25,16.3 L145.83,16.3 L145.83,10.98 Z M151.55,14.72 L151.55,12.54 L147.55,12.54 L147.55,14.72 L151.55,14.72 Z M154.83,3.02 L144.35,3.02 L144.35,4.78 L154.83,4.78 L154.83,3.02 Z M144.35,6.5 L144.35,7.88 L157.63,7.88 C157.63,12.9 157.53,16 157.33,17.2 C157.13,18.36 156.21,18.94 154.57,18.94 C154.09,18.94 153.29,18.9 152.15,18.86 L151.73,17.26 C152.73,17.32 153.57,17.36 154.27,17.36 C155.03,17.36 155.47,17.04 155.61,16.4 C155.71,15.72 155.77,13.46 155.81,9.58 L144.35,9.58 C144.27,13.22 143.35,16.36 141.59,18.98 L140.09,17.64 C141.67,15.48 142.47,12.7 142.49,9.28 L142.49,1.24 L156.67,1.24 L156.67,6.5 L144.35,6.5 Z M166.59,6.66 L170.17,11.5 L166.13,17 L168.63,17 L171.35,13.06 L174.05,17 L176.53,17 L172.51,11.5 L176.09,6.66 L173.61,6.66 L171.35,9.94 L169.07,6.66 L166.59,6.66 Z" id="財政部中區國稅局-x" fill="#4990E2"></path>
                <path d="M212.17,3.72 L218.49,3.72 C219.93,3.72 221.09,4.04 221.93,4.7 C222.81,5.42 223.25,6.44 223.25,7.8 C223.25,8.56 223.05,9.22 222.65,9.8 C222.19,10.44 221.57,10.86 220.79,11.06 L220.79,11.1 C222.07,11.38 222.77,12.22 222.93,13.62 L223.17,15.9 C223.25,16.78 223.53,17.48 224.01,18 L221.65,18 C221.31,17.56 221.11,16.92 221.03,16.12 L220.85,14.34 C220.77,13.54 220.51,12.98 220.09,12.62 C219.65,12.26 219.03,12.1 218.21,12.1 L214.35,12.1 L214.35,18 L212.17,18 L212.17,3.72 Z M214.35,5.58 L214.35,10.24 L218.21,10.24 C219.17,10.24 219.89,10.02 220.37,9.62 C220.83,9.22 221.07,8.64 221.07,7.88 C221.07,7.08 220.83,6.5 220.39,6.14 C219.91,5.76 219.19,5.58 218.19,5.58 L214.35,5.58 Z M230.19,7.38 C231.87,7.38 233.17,7.94 234.05,9.1 C234.85,10.14 235.27,11.58 235.29,13.42 L227.45,13.42 C227.53,14.42 227.79,15.2 228.27,15.74 C228.75,16.26 229.41,16.54 230.25,16.54 C230.99,16.54 231.59,16.36 232.05,16.02 C232.41,15.74 232.71,15.28 232.99,14.68 L235.11,14.68 C234.87,15.64 234.41,16.46 233.69,17.1 C232.79,17.88 231.65,18.28 230.27,18.28 C228.75,18.28 227.53,17.8 226.65,16.86 C225.69,15.86 225.21,14.52 225.21,12.82 C225.21,11.28 225.65,10 226.57,8.96 C227.45,7.9 228.67,7.38 230.19,7.38 Z M230.25,9.12 C229.45,9.12 228.83,9.34 228.35,9.82 C227.91,10.28 227.61,10.94 227.49,11.82 L233.07,11.82 C232.87,10.02 231.93,9.12 230.25,9.12 Z M237.33,3.44 L237.33,18 L239.45,18 L239.45,3.44 L237.33,3.44 Z M246.75,7.38 C248.27,7.38 249.39,7.76 250.11,8.52 C250.73,9.18 251.05,10.14 251.05,11.4 L251.05,18 L249.09,18 L249.09,16.54 C248.69,17.06 248.19,17.48 247.59,17.78 C246.91,18.1 246.11,18.28 245.19,18.28 C244.11,18.28 243.27,18 242.67,17.46 C242.01,16.92 241.69,16.22 241.69,15.36 C241.69,14.2 242.15,13.3 243.07,12.68 C243.91,12.08 245.11,11.78 246.63,11.74 L248.95,11.68 L248.95,11.26 C248.95,9.82 248.17,9.1 246.61,9.1 C245.95,9.1 245.41,9.22 245.01,9.46 C244.53,9.74 244.23,10.16 244.11,10.74 L242.01,10.56 C242.23,9.44 242.79,8.6 243.67,8.08 C244.43,7.6 245.47,7.38 246.75,7.38 Z M248.95,13.22 L246.77,13.28 C244.83,13.32 243.87,14 243.87,15.28 C243.87,15.68 244.03,16 244.37,16.26 C244.69,16.52 245.13,16.66 245.67,16.66 C246.57,16.66 247.33,16.38 247.97,15.84 C248.61,15.3 248.95,14.62 248.95,13.82 L248.95,13.22 Z M253.47,3.44 L255.59,3.44 L255.59,9.2 C256.43,7.98 257.47,7.38 258.75,7.38 C260.23,7.38 261.39,7.92 262.25,9 C263.03,10 263.43,11.26 263.43,12.78 C263.43,14.36 263.03,15.66 262.23,16.66 C261.35,17.74 260.17,18.28 258.65,18.28 C257.23,18.28 256.17,17.76 255.45,16.76 L255.45,18 L253.47,18 L253.47,3.44 Z M258.27,9.1 C257.47,9.1 256.83,9.4 256.35,10.04 C255.79,10.72 255.53,11.62 255.53,12.74 L255.53,12.92 C255.53,13.96 255.75,14.8 256.19,15.46 C256.69,16.18 257.41,16.56 258.33,16.56 C259.37,16.56 260.13,16.18 260.63,15.44 C261.03,14.8 261.25,13.92 261.25,12.78 C261.25,11.64 261.03,10.76 260.59,10.16 C260.09,9.44 259.31,9.1 258.27,9.1 Z M265.43,12.36 L273.75,12.36 C273.55,12.04 273.35,11.76 273.15,11.5 L274.93,11.22 C275.17,11.56 275.39,11.94 275.63,12.36 L282.99,12.36 L282.99,13.92 L274.03,13.92 C273.25,14.68 272.27,15.4 271.07,16.04 L271.07,18.2 C272.55,17.92 273.95,17.58 275.25,17.22 L275.51,18.74 C273.75,19.18 271.59,19.62 269.07,20.02 L268.75,18.68 C269.19,18.5 269.41,18.24 269.41,17.9 L269.41,16.84 C268.41,17.24 267.31,17.64 266.15,18 L265.25,16.5 C268.25,15.82 270.49,14.96 272.01,13.92 L265.43,13.92 L265.43,12.36 Z M280.17,14.3 L281.39,15.36 C280.75,16.04 279.99,16.64 279.11,17.18 C280.31,17.8 281.73,18.28 283.37,18.62 L282.35,20.1 C278.71,19.2 276.13,17.54 274.59,15.1 L275.85,14.38 C276.33,15.12 276.97,15.78 277.75,16.36 C278.69,15.74 279.49,15.06 280.17,14.3 Z M267.85,4.22 C267.73,4.52 267.59,4.8 267.45,5.06 L265.93,4.6 C266.45,3.76 266.79,2.78 266.93,1.7 L268.41,1.88 C268.37,2.2 268.31,2.5 268.27,2.78 L270.11,2.78 L270.11,1.64 L271.83,1.64 L271.83,2.78 L275.27,2.78 L275.27,4.22 L271.83,4.22 L271.83,5.22 L275.95,5.22 L275.95,6.66 L271.83,6.66 L271.83,7.56 L275.55,7.56 L275.55,9.96 C275.55,10.66 274.99,11.02 273.87,11.02 L272.69,11.02 L272.39,9.8 L273.39,9.84 C273.75,9.84 273.93,9.7 273.93,9.46 L273.93,8.84 L271.83,8.84 L271.83,11.44 L270.11,11.44 L270.11,8.84 L268.17,8.84 L268.17,11.14 L266.57,11.14 L266.57,7.56 L270.11,7.56 L270.11,6.66 L265.57,6.66 L265.57,5.22 L270.11,5.22 L270.11,4.22 L267.85,4.22 Z M276.73,2.72 L278.45,2.72 L278.45,8.62 L276.73,8.62 L276.73,2.72 Z M280.45,11.34 L278.05,11.34 L277.69,9.68 C278.45,9.72 279.17,9.76 279.85,9.76 C280.31,9.76 280.55,9.58 280.55,9.22 L280.55,1.62 L282.27,1.62 L282.27,9.62 C282.27,10.76 281.65,11.34 280.45,11.34 Z M294.11,6.12 C293.19,8.04 292.15,9.7 291.01,11.1 L289.65,9.46 C291.31,7.52 292.73,4.84 293.89,1.44 L295.81,1.86 C295.53,2.7 295.23,3.5 294.93,4.26 L303.17,4.26 L303.17,6.12 L296.75,6.12 L296.75,8.98 L302.37,8.98 L302.37,10.82 L296.75,10.82 L296.75,13.76 L302.41,13.76 L302.41,15.58 L296.75,15.58 L296.75,20.1 L294.83,20.1 L294.83,6.12 L294.11,6.12 Z M287.29,9.42 C286.73,10.1 286.11,10.78 285.47,11.44 L284.83,9.4 C286.89,7.14 288.41,4.5 289.39,1.5 L291.19,2.34 C290.67,3.86 290.01,5.3 289.21,6.66 L289.21,20.1 L287.29,20.1 L287.29,9.42 Z" id="Relab製作" fill="#4990E2"></path>
                <g id="Page-1" transform="translate(185.000000, 0.000000)">
                    <path d="M16.5044512,4.42777036 C16.9802651,3.92552645 17.7871023,3.89135009 18.305893,4.3524833 C18.8246837,4.8131212 18.859986,5.59372908 18.3836605,6.09597298 C17.9078465,6.5987122 17.1015209,6.63239325 16.5822186,6.17175535 C16.0634279,5.71111745 16.0286372,4.93001426 16.5044512,4.42777036" id="Fill-1" fill="#0D92D1"></path>
                    <g id="Group-5" transform="translate(0.000000, 0.160777)">
                        <mask id="mask-2" fill="white">
                            <use xlink:href="#path-1"></use>
                        </mask>
                        <g id="Clip-4"></g>
                        <path d="M19.6968558,7.03314822 L15.7128093,10.8559475 L17.7490884,11.2333734 C17.0599256,15.3835722 13.0257395,18.2073321 8.7388093,17.5406454 C4.45136744,16.8734634 1.53457674,12.9679475 2.22373953,8.81774859 C2.9123907,4.66705441 6.94657674,1.84329456 11.2340186,2.51047655 C12.2020186,2.66105066 13.1321581,2.98547842 13.9773674,3.46741463 C14.5227628,3.72348968 15.179693,3.50307692 15.4442047,2.97507692 C15.6816,2.50106567 15.5245302,1.92997373 15.0753209,1.6332833 C10.2598791,-1.0483227 4.11113488,0.5564803 1.3411814,5.21783865 C-1.42877209,9.87969231 0.229413953,15.8323227 5.04434419,18.5139287 C9.85927442,21.1955347 16.0085302,19.5902364 18.7779721,14.928878 C19.3755535,13.9233996 19.7828093,12.8228218 19.9802977,11.679152 L21.9812744,12.0560826 L19.6968558,7.03314822 Z" id="Fill-3" fill="#0D92D1" mask="url(#mask-2)"></path>
                    </g>
                </g>
            </g>
        </g>
    </g>
</svg>