<?xml version="1.0" standalone="no"?>
<!DOCTYPE svg PUBLIC "-//W3C//DTD SVG 20010904//EN"
 "http://www.w3.org/TR/2001/REC-SVG-20010904/DTD/svg10.dtd">
<svg version="1.0" xmlns="http://www.w3.org/2000/svg"
 width="780.000000pt" height="780.000000pt" viewBox="0 0 780.000000 780.000000"
 preserveAspectRatio="xMidYMid meet">
<metadata>
Created by potrace 1.11, written by Peter Selinger 2001-2013
</metadata>
<g transform="translate(0.000000,780.000000) scale(0.100000,-0.100000)"
fill="#000000" stroke="none">
<path d="M6331 6345 c-749 -157 -1695 -549 -2381 -985 -771 -491 -1391 -1119
-1784 -1809 -79 -138 -218 -427 -275 -571 -104 -262 -202 -595 -237 -803 -34
-207 -18 -176 -200 -389 -117 -137 -166 -202 -170 -226 -14 -73 50 -152 122
-152 38 0 71 30 164 145 l51 62 207 6 c388 12 672 72 1071 229 583 230 1213
640 1846 1203 369 328 420 393 420 535 0 104 -39 183 -144 291 l-76 79 230 0
c328 0 453 22 549 95 120 91 535 843 709 1285 116 293 169 492 213 801 19 134
16 164 -19 205 -36 41 -99 41 -296 -1z m59 -319 c-6 -34 -22 -109 -36 -167
l-25 -106 -57 -23 c-175 -70 -591 -297 -922 -503 -1119 -696 -2298 -1689
-3319 -2795 -52 -56 -96 -101 -97 -99 -11 10 97 350 171 542 411 1063 1297
1977 2520 2599 499 254 1113 480 1695 624 88 22 88 22 70 -72z m-211 -683
c-57 -141 -254 -534 -352 -703 -232 -403 -217 -381 -287 -414 -44 -21 -54 -21
-517 -18 -523 3 -527 3 -558 -59 -22 -42 -14 -103 17 -136 13 -14 80 -63 150
-109 215 -142 309 -247 294 -328 -5 -24 -30 -56 -94 -117 -102 -99 -266 -248
-372 -339 -41 -35 -84 -72 -95 -82 -20 -17 -24 -14 -215 167 -157 149 -200
185 -222 185 -36 0 -68 -32 -68 -69 0 -25 28 -56 185 -207 102 -98 185 -180
185 -183 -1 -6 -160 -130 -217 -169 l-34 -23 -159 150 c-166 157 -182 167
-228 135 -16 -11 -22 -25 -22 -52 0 -34 10 -46 148 -178 l147 -141 -160 -105
c-540 -355 -1083 -588 -1555 -667 -145 -24 -324 -37 -319 -22 2 5 103 119 224
253 262 289 951 983 1225 1233 895 817 1847 1517 2650 1950 80 43 172 93 205
112 33 18 65 33 72 33 7 0 -3 -37 -28 -97z"/>
</g>
</svg>
